<svg version="1.1" id="Layer_1" xmlns="http://www.w3.org/2000/svg" xmlns:xlink="http://www.w3.org/1999/xlink" x="0px" y="0px"
	 width="100%" viewBox="0 0 864 864" enable-background="new 0 0 864 864" xml:space="preserve">
<path fill="#000000" opacity="1.000000" stroke="none" 
	d="
M481.000000,865.000000 
	C320.666718,865.000000 160.833435,865.000000 1.000107,865.000000 
	C1.000072,577.000122 1.000072,289.000275 1.000036,1.000300 
	C288.999786,1.000200 576.999573,1.000200 864.999512,1.000100 
	C864.999634,288.999695 864.999634,576.999390 864.999817,864.999512 
	C737.166687,865.000000 609.333313,865.000000 481.000000,865.000000 
M278.502563,327.998169 
	C278.334839,328.042786 278.167145,328.087372 277.167938,327.989105 
	C275.096161,328.284302 273.024353,328.579498 270.467377,329.005890 
	C270.309021,329.060547 270.150635,329.115234 269.133850,329.008881 
	C267.509918,329.008881 265.885956,329.008881 264.272217,329.008881 
	C264.198486,333.229126 265.002533,334.353607 268.367706,335.009796 
	C269.629944,335.255890 270.925232,335.354431 272.170746,335.661194 
	C279.121674,337.373077 286.061981,339.128235 293.766418,341.019196 
	C294.688812,341.639679 295.535675,342.607941 296.545197,342.827148 
	C307.430969,345.190735 317.365417,349.833923 327.169312,354.968719 
	C339.678436,361.520325 350.073151,369.884277 355.196106,383.653381 
	C358.564636,392.707153 356.679901,400.583771 351.350403,408.317535 
	C346.283295,415.670502 338.248230,418.111969 330.137177,421.974518 
	C328.264862,422.309021 326.392548,422.643494 324.100220,423.053009 
	C323.386292,418.398651 322.365204,413.966003 322.090698,409.487610 
	C321.525177,400.260559 321.451385,391.004395 320.987946,381.769623 
	C320.758667,377.200562 320.310577,372.618011 319.524445,368.117889 
	C319.317200,366.931549 317.485107,366.029083 316.399170,364.996246 
	C315.590393,366.192780 314.197449,367.331818 314.073059,368.595673 
	C313.510254,374.315948 313.299744,380.071167 312.973694,385.814392 
	C312.302948,397.630920 311.558289,409.444244 311.032593,421.267273 
	C310.907990,424.069336 309.943176,425.363159 307.172180,424.966431 
	C302.210754,424.256104 297.277740,423.317902 292.300781,422.761963 
	C290.600922,422.572113 288.804840,423.243896 287.052704,423.521973 
	C288.049042,425.025238 288.703308,427.224121 290.100922,427.911469 
	C296.191803,430.906921 302.498779,433.462860 309.168396,436.370758 
	C309.168396,440.979736 309.168396,446.131775 308.986145,452.075043 
	C308.976044,454.018372 308.965942,455.961731 308.203033,458.259674 
	C308.103668,459.248199 308.033661,460.240723 307.900543,461.224701 
	C305.657532,477.800720 305.849945,477.258026 319.559235,477.021576 
	C320.882751,476.998749 322.433105,477.304871 323.471619,476.727295 
	C324.860809,475.954681 326.872498,474.448303 326.850372,473.290771 
	C326.702881,465.571136 326.079895,457.860809 325.621094,450.146851 
	C325.362427,445.797516 325.122131,441.447083 324.887604,437.342438 
	C335.271454,436.374786 344.249908,434.442078 353.163422,430.276794 
	C371.913727,421.514832 382.677795,398.765320 376.270782,378.719360 
	C373.219910,369.173889 369.034760,360.288025 361.165375,353.697998 
	C356.712524,349.969025 352.415527,345.780823 347.354950,343.116547 
	C340.255188,339.378693 332.510071,336.866669 324.689606,333.134094 
	C315.277924,330.792175 305.887817,328.303589 295.657959,328.146088 
	C292.106934,328.138855 288.555939,328.131622 284.500793,327.987854 
	C284.332703,328.033356 284.164612,328.078888 283.172363,327.986908 
	C281.783478,328.035187 280.394592,328.083496 278.502563,327.998169 
M257.998596,505.007477 
	C257.998596,505.007477 257.933258,505.056427 258.133453,505.701691 
	C259.415588,506.496124 260.697723,507.290527 261.993500,508.010864 
	C261.993500,508.010864 261.922699,508.036621 262.137726,508.697327 
	C263.198883,509.730316 264.106689,511.021362 265.344543,511.756958 
	C280.236420,520.606140 296.161224,526.956787 313.328705,531.880493 
	C314.585022,532.129395 315.840576,532.382385 317.097839,532.626465 
	C324.690277,534.101135 332.283112,535.573730 340.241333,537.791077 
	C343.352478,538.536438 346.427277,539.543640 349.581116,539.981079 
	C362.407715,541.760071 375.231689,543.622803 388.107971,544.960388 
	C400.935883,546.293030 413.810150,547.465881 426.691803,547.915771 
	C440.118561,548.384705 453.578400,547.906555 467.937653,548.013977 
	C482.358734,546.952393 496.779846,545.890808 511.984406,544.999451 
	C513.046021,544.928406 514.107605,544.857422 515.999268,544.856812 
	C518.067444,544.574341 520.129272,544.229309 522.204895,544.020874 
	C529.175110,543.320862 536.222473,543.088989 543.107361,541.905334 
	C554.631470,539.924072 566.007874,537.086609 577.528381,535.080261 
	C596.077942,531.849915 613.474792,525.225525 630.593262,517.725342 
	C631.946045,517.132690 632.798828,515.398987 634.550598,514.041138 
	C634.998657,513.967957 635.446716,513.894775 636.642761,513.779602 
	C639.763733,511.865112 643.063232,510.187317 645.973145,507.992950 
	C655.854736,500.541260 664.085510,488.127289 656.525391,474.339081 
	C654.549805,470.735992 650.922180,468.038727 648.006287,464.994263 
	C648.006287,464.994263 648.083801,464.963562 647.960388,464.434723 
	C647.657410,464.263611 647.354431,464.092499 647.001404,464.000610 
	C647.001404,464.000610 647.056335,463.923370 646.847839,463.265717 
	C641.930115,460.142029 637.012390,457.018311 631.801575,453.236786 
	C628.554871,451.778748 625.308228,450.320709 621.744263,448.194305 
	C615.387085,445.842804 609.029968,443.491272 602.662048,441.135803 
	C600.782532,446.605194 604.357971,447.009766 606.764893,448.385773 
	C615.500854,453.379974 624.749878,457.707306 632.721680,463.722321 
	C637.610779,467.411316 640.460266,473.359131 639.186584,480.752136 
	C637.396240,491.144196 629.927002,496.492767 622.038025,500.747833 
	C611.750488,506.296661 600.620911,510.284393 589.068298,514.980652 
	C587.484253,515.648193 585.956970,516.563843 584.306580,516.941467 
	C575.844543,518.877441 567.387878,520.872498 558.858826,522.471130 
	C548.077393,524.492004 537.234741,526.191772 526.405090,527.947693 
	C521.287292,528.777405 516.138306,529.415344 510.108368,529.984985 
	C505.742004,530.368774 501.375641,530.752563 496.495422,531.006775 
	C496.324127,531.049866 496.152802,531.093018 495.078461,530.984680 
	C485.180511,531.317627 475.282043,531.636719 465.386169,532.022644 
	C464.869202,532.042725 464.374359,532.629700 462.949249,532.993896 
	C450.238953,532.649902 437.506317,532.662964 424.824158,531.869324 
	C409.840424,530.931702 394.871857,529.550110 379.951508,527.873413 
	C370.510864,526.812500 361.169861,524.863525 351.785004,523.307739 
	C347.521332,522.600891 343.259735,521.881470 338.206848,520.981873 
	C328.101685,517.971863 317.878021,515.304932 307.921326,511.865173 
	C295.401459,507.540009 283.640320,501.926239 273.782593,492.477997 
	C263.941193,483.045410 264.244385,473.291107 274.001251,463.476410 
	C281.975769,455.454498 292.345154,451.763458 302.152130,446.981140 
	C303.659851,446.245941 304.784637,444.725464 306.086487,443.568146 
	C305.808838,443.068573 305.531189,442.569000 305.253540,442.069427 
	C303.434692,442.246216 301.519958,442.115845 299.812439,442.649109 
	C287.858093,446.382629 276.260101,451.110718 265.894226,458.142426 
	C261.316071,461.248016 257.855255,466.000793 253.280334,470.253876 
	C252.281876,471.892242 251.283417,473.530579 249.454453,475.077057 
	C244.403610,483.987274 247.756592,498.069519 256.991669,504.002319 
	C256.991669,504.002319 256.915833,504.029297 257.077850,504.541443 
	C257.375031,504.722229 257.672241,504.902985 257.998596,505.007477 
M217.996170,355.995667 
	C217.996170,355.995667 217.950867,355.925476 217.216034,355.969391 
	C210.028580,361.927673 206.798126,375.156708 209.980560,385.728668 
	C215.316879,397.030823 225.151550,402.006500 236.558502,405.134338 
	C241.913177,406.602600 247.226486,408.633118 252.092560,411.269043 
	C254.033401,412.320404 255.401657,415.606873 255.712128,418.043854 
	C255.895599,419.483826 253.803528,422.195465 252.210327,422.709351 
	C245.481354,424.879730 238.665695,424.022644 236.112015,415.741974 
	C235.210403,412.818298 233.596481,411.886078 230.762466,411.934845 
	C224.944672,412.035034 219.123932,411.963745 213.304413,411.965271 
	C207.194778,411.966888 205.144196,415.174042 207.566315,421.010620 
	C207.998703,422.052521 208.639984,423.007721 209.009369,424.754089 
	C211.869156,434.296295 219.189651,439.582245 227.753510,442.909027 
	C239.809387,447.592346 252.155167,446.763458 264.482239,443.168182 
	C285.270813,437.105072 290.758423,416.988251 282.492340,400.167297 
	C277.895874,390.813782 268.378448,387.261810 259.104584,383.970673 
	C253.566498,382.005371 247.943665,380.232483 242.560226,377.907074 
	C241.021408,377.242371 239.471069,375.043915 239.249481,373.373230 
	C239.065033,371.982513 240.446960,369.711090 241.782516,368.912537 
	C246.623596,366.017975 251.594833,368.339233 254.151413,373.273773 
	C255.387222,375.659027 258.207214,378.472626 260.597137,378.767944 
	C266.834534,379.538666 273.245300,379.261719 279.552429,378.860321 
	C281.110107,378.761200 283.947418,376.365204 283.792725,375.417328 
	C282.826355,369.496155 282.542725,363.114288 277.014191,358.076080 
	C275.717743,356.885590 275.634247,353.317993 272.493469,355.606750 
	C272.493469,355.606750 272.231018,355.483246 272.872620,354.820343 
	C271.255920,353.852386 269.639252,352.884399 268.011230,351.986023 
	C268.011230,351.986023 268.079071,351.966858 268.014282,351.195404 
	C267.788940,350.808136 267.660339,350.237976 267.324219,350.060181 
	C257.509094,344.868622 246.885788,345.406799 236.414352,346.389893 
	C232.804977,346.728790 229.415054,349.405273 225.275421,351.036896 
	C224.240738,351.756042 223.206070,352.475189 221.418213,352.994049 
	C220.255096,353.978119 219.091980,354.962219 217.996170,355.995667 
M573.392273,413.890869 
	C575.378784,413.934814 577.365173,414.012543 579.351746,414.016693 
	C586.646118,414.031982 593.940491,414.005371 601.234741,414.032166 
	C603.903198,414.041992 606.822876,416.289948 609.858154,412.656982 
	C609.626282,408.430542 609.394409,404.204132 609.015442,399.101471 
	C610.398865,387.303162 599.800476,371.669128 586.622559,369.432556 
	C583.736023,368.942627 580.728699,368.966400 577.785583,369.051117 
	C572.507263,369.203094 567.235535,369.580811 561.176758,369.998993 
	C552.420166,371.897797 546.516357,377.422943 541.935181,384.817078 
	C535.942810,394.488831 536.123901,405.302704 537.208923,415.773193 
	C538.390747,427.177429 544.009583,436.664001 554.889587,441.980194 
	C562.334839,445.618164 570.248230,445.438660 578.368164,445.140320 
	C593.283875,444.592407 602.885925,437.465485 608.080322,423.728821 
	C609.742065,419.334259 608.523621,417.054688 603.916016,416.993530 
	C598.419495,416.920563 592.886719,416.656891 587.439026,417.187714 
	C585.111938,417.414459 582.445984,418.975189 580.836304,420.748718 
	C577.533264,424.387939 574.487793,425.498505 570.499573,423.064331 
	C566.523376,420.637482 566.210693,417.099274 568.865112,413.014343 
	C570.227051,413.054871 571.588928,413.095428 573.392273,413.890869 
M236.233978,323.977936 
	C233.569412,325.378571 230.705658,326.502563 228.286606,328.244202 
	C224.590439,330.905243 225.229767,333.129120 229.045364,335.685547 
	C235.748993,340.176910 243.491394,339.727661 251.180328,341.760620 
	C252.746094,342.515808 254.246475,343.693115 255.889801,343.947754 
	C260.999390,344.739441 261.700500,343.426270 261.139099,338.294800 
	C260.586121,333.240021 261.170380,328.070068 260.898834,322.969666 
	C260.815094,321.397400 259.826385,319.619507 258.695770,318.495056 
	C258.302551,318.103973 256.231476,319.399872 254.122330,319.981903 
	C250.681229,320.663116 247.219498,321.256226 243.806259,322.056366 
	C241.500885,322.596771 239.263885,323.428894 236.233978,323.977936 
M388.251587,387.199066 
	C387.197510,394.610626 387.560669,395.024200 395.139893,395.027466 
	C399.296295,395.029236 403.453430,394.979218 407.608887,395.041565 
	C411.647980,395.102142 415.626892,395.256866 416.184662,389.677002 
	C416.243652,389.086792 417.269470,388.191650 417.908875,388.134583 
	C420.022278,387.946075 423.147705,387.218567 424.073212,388.278961 
	C425.604645,390.033691 425.725525,393.019562 426.418732,395.410767 
	C419.415497,395.989990 413.300232,396.010590 407.380676,397.097290 
	C398.145264,398.792755 389.824005,402.209259 387.051025,413.375763 
	C387.071106,413.822144 387.091187,414.268524 386.242737,414.982605 
	C382.244019,422.408417 386.239777,435.882812 393.866058,441.046661 
	C402.080383,446.608673 411.041779,446.558502 420.107574,444.301147 
	C422.683044,443.659912 424.862885,441.429626 427.712006,439.817810 
	C428.108948,439.540558 428.505920,439.263275 429.043976,439.786835 
	C429.187134,442.830841 430.832642,444.095123 433.819183,444.057861 
	C439.479370,443.987213 445.145569,443.895050 450.800354,444.081635 
	C454.099152,444.190460 455.311951,442.939850 455.065338,439.701599 
	C454.628296,433.962311 454.167419,428.212097 454.086639,422.461243 
	C453.934601,411.640717 454.305573,400.808594 453.973572,389.996185 
	C453.651764,379.515198 447.582733,371.946350 437.611389,370.230011 
	C428.932190,368.736115 419.872589,369.452332 410.173431,369.008972 
	C403.440216,369.368896 397.955292,372.745422 393.505066,377.257782 
	C391.152283,379.643311 390.417023,383.624084 388.251587,387.199066 
M468.269775,382.151215 
	C467.862854,382.660309 467.381561,383.126556 467.059998,383.684845 
	C461.404144,393.504395 461.211975,404.323883 462.086273,415.070068 
	C463.034027,426.718475 468.149414,436.451904 478.955841,441.933685 
	C486.746368,445.885590 495.196716,445.685059 503.919403,445.253998 
	C519.560120,444.480957 529.882385,433.102509 532.986755,419.916901 
	C533.842163,416.283539 531.855347,414.044952 527.886536,413.991882 
	C522.727661,413.922882 517.538025,414.321869 512.415466,413.886322 
	C507.387421,413.458832 504.471527,414.566284 503.697540,420.176514 
	C503.451538,421.959930 500.037750,424.999390 499.082672,424.656128 
	C496.754486,423.819397 493.935944,421.680176 493.235870,419.459717 
	C490.728394,411.506653 490.125275,403.421570 492.813843,395.122253 
	C493.903168,391.759491 494.843689,389.382874 498.525696,389.031403 
	C502.426025,388.659119 503.199707,391.644562 503.931854,394.413605 
	C504.994751,398.433563 507.104858,400.478638 511.610382,400.117432 
	C516.241394,399.746155 520.925293,400.035950 525.586060,400.034882 
	C532.734009,400.033234 534.413025,397.801697 532.582275,390.986816 
	C529.522095,379.596100 522.237244,372.432404 510.074524,369.003418 
	C503.625824,369.004272 497.162262,368.727722 490.731903,369.071777 
	C481.355530,369.573486 473.927673,373.762360 468.269775,382.151215 
M413.991730,458.961395 
	C414.054413,461.249481 414.117096,463.537567 414.164734,466.685822 
	C417.932678,467.352295 421.700653,468.018768 425.978638,468.775482 
	C425.978638,476.938904 425.978577,485.555847 425.978668,494.172791 
	C425.978760,501.809631 425.978821,501.809601 433.309174,502.908020 
	C440.442230,503.976807 441.017944,503.491730 441.018982,496.395355 
	C441.020355,486.970428 441.019287,477.545502 441.019287,468.021973 
	C444.647430,468.021973 447.754822,468.513153 450.583954,467.838196 
	C452.287018,467.431885 454.734833,465.244873 454.777771,463.796692 
	C454.868805,460.725342 457.010590,455.553162 451.675842,455.140869 
	C440.484344,454.275909 429.222076,454.284363 417.986206,454.091003 
	C416.655609,454.068085 415.198059,454.856140 414.031250,455.621735 
	C413.648468,455.872894 413.999664,457.242767 413.991730,458.961395 
M484.307953,453.977600 
	C478.145752,453.977692 471.980865,453.864777 465.822113,454.010406 
	C459.908417,454.150208 458.980255,455.197784 458.978577,460.858124 
	C458.974884,473.182495 459.103912,485.508850 458.912292,497.830231 
	C458.841949,502.352203 461.026337,503.984894 465.045654,504.008148 
	C473.372650,504.056274 481.700623,503.967010 490.027222,504.041687 
	C495.790405,504.093414 494.900421,500.025543 495.052094,496.411469 
	C495.210297,492.640686 494.594208,489.812622 489.846252,489.945007 
	C484.717224,490.088043 479.581085,489.977386 474.372498,489.977386 
	C474.372498,488.127899 474.372498,486.628479 474.372498,484.529022 
	C479.643524,485.050018 484.511993,485.737488 489.395081,485.865082 
	C490.577972,485.895966 492.258087,484.304504 492.888580,483.047302 
	C493.489197,481.849701 492.854004,480.092804 493.048462,478.619598 
	C493.608948,474.373901 492.190308,472.468872 487.597412,472.902679 
	C483.636078,473.276825 479.610718,472.986389 475.613922,472.954071 
	C475.152863,472.950378 474.693604,472.718170 474.274841,472.603241 
	C474.274841,471.096313 474.274841,469.698334 474.274841,468.022705 
	C476.995331,468.022705 479.468323,468.022980 481.941284,468.022583 
	C484.605865,468.022156 487.272705,467.951233 489.934479,468.037659 
	C493.465424,468.152283 494.993134,466.571625 495.066193,463.001831 
	C495.215546,455.707703 493.544006,454.071045 484.307953,453.977600 
M567.661377,486.023071 
	C570.739624,486.023071 573.817932,486.023071 576.977783,486.023071 
	C576.977783,490.538361 576.902710,494.360718 576.999207,498.178772 
	C577.092957,501.888092 578.304932,504.515167 582.831604,504.069214 
	C585.452759,503.810974 588.120178,504.022278 592.012512,504.022278 
	C592.012512,499.005585 592.011597,494.333130 592.012817,489.660675 
	C592.015442,479.679688 591.798157,469.691925 592.105530,459.720306 
	C592.290710,453.712463 588.029724,454.252747 584.533936,454.076172 
	C580.744080,453.884735 576.918396,454.430969 576.969971,459.765656 
	C577.011414,464.048584 576.978333,468.332184 576.978333,472.979370 
	C574.127197,472.979370 571.662842,472.819580 569.227722,473.018219 
	C565.890259,473.290405 564.781860,471.858643 564.977661,468.651489 
	C565.180054,465.336823 565.287231,461.968353 564.893372,458.688629 
	C564.733643,457.358643 563.369202,455.522919 562.148621,455.108765 
	C559.748901,454.294464 557.027222,453.880524 554.511475,454.107178 
	C551.870972,454.345123 549.831726,455.552429 549.891541,459.150909 
	C550.110046,472.288910 550.030396,485.432983 549.949890,498.574097 
	C549.927490,502.234985 551.242676,504.239105 555.132629,504.033661 
	C556.459717,503.963593 557.800415,503.935730 559.123169,504.038666 
	C563.285339,504.362671 565.315857,502.685516 565.049500,498.319183 
	C564.857361,495.170380 564.885010,491.991547 565.094604,488.844757 
	C565.159302,487.874023 566.145386,486.964661 567.661377,486.023071 
M505.943787,497.448425 
	C512.122559,503.429047 519.261230,505.882629 527.898010,504.079895 
	C535.525269,502.487946 543.764160,494.786560 542.961609,486.585907 
	C542.847839,485.422791 542.130615,483.419617 541.522583,483.352783 
	C538.076843,482.973999 534.489868,482.591705 531.141785,483.222961 
	C529.725891,483.489960 528.619202,486.137848 527.643311,487.857483 
	C524.783264,492.896942 521.348572,493.367889 518.150940,488.443115 
	C514.767395,483.232056 515.100464,477.164124 517.087402,471.596863 
	C517.893494,469.338196 520.680420,466.868774 522.954651,466.406342 
	C524.256165,466.141693 526.294739,469.761414 528.087524,471.545837 
	C529.014404,472.468445 530.137268,473.908905 531.157227,473.896820 
	C535.115662,473.849976 539.072266,473.347382 543.015442,472.892639 
	C543.307007,472.859009 543.772156,471.798920 543.669678,471.320343 
	C543.237732,469.303131 542.848877,467.226624 542.034119,465.349792 
	C537.578796,455.086060 528.942322,453.246979 518.963867,453.941803 
	C512.704651,454.377686 503.710358,461.070740 502.151764,468.304718 
	C500.058319,478.021179 498.972717,488.008759 505.943787,497.448425 
z"/>
<path fill="#F0742D" opacity="1.000000" stroke="none" 
	d="
M635.894775,513.821655 
	C635.446716,513.894775 634.998657,513.967957 633.887817,514.208130 
	C617.655884,520.031860 602.437744,527.152466 586.432434,530.990051 
	C564.378479,536.278076 541.726440,539.066040 519.344238,543.002625 
	C517.892883,543.257996 516.558167,544.176453 515.169189,544.786438 
	C514.107605,544.857422 513.046021,544.928406 511.318268,544.565796 
	C499.109039,544.730225 487.565948,545.328247 475.554382,545.880371 
	C445.636322,544.873169 416.159393,544.397949 386.749054,542.740601 
	C372.518280,541.938721 358.412628,538.917236 344.092529,536.777344 
	C343.681824,536.501221 343.428192,536.499939 342.828186,536.486328 
	C341.977570,536.291321 341.472626,536.260193 340.596558,536.083130 
	C331.130249,533.827698 322.035034,531.718140 312.601685,529.400757 
	C297.400177,525.024719 282.929474,519.899902 269.590759,511.942413 
	C267.132812,510.476074 264.483612,509.330353 261.922699,508.036621 
	C261.922699,508.036621 261.993500,508.010864 262.054382,507.672272 
	C260.721252,506.574585 259.327271,505.815491 257.933258,505.056427 
	C257.933258,505.056427 257.998596,505.007477 258.089752,504.683167 
	C257.759216,504.249023 257.337524,504.139160 256.915833,504.029297 
	C256.915833,504.029297 256.991669,504.002319 257.198883,503.720459 
	C256.447784,502.116394 255.542770,500.751373 254.521896,499.479401 
	C249.924484,493.750946 247.840576,487.424500 249.627197,480.072845 
	C250.014542,478.479065 250.074326,476.805664 250.284973,475.168945 
	C251.283417,473.530579 252.281876,471.892242 253.932739,470.110748 
	C260.581879,465.603912 266.578583,461.240234 272.864136,456.832520 
	C273.436554,456.535675 273.720123,456.282867 274.219086,455.749237 
	C275.531097,455.038025 276.627716,454.607574 277.827820,454.755463 
	C278.012451,455.716949 278.093567,456.100128 278.080139,456.623169 
	C277.795044,456.908020 277.581390,456.962982 277.068237,457.032684 
	C276.528198,457.419037 276.264557,457.700592 275.722107,458.165588 
	C273.667480,460.091766 271.590790,461.619690 270.166687,463.613678 
	C263.118774,473.482147 260.781219,480.871796 269.884369,491.905273 
	C272.796356,495.434814 276.485413,498.563812 280.363281,501.014771 
	C298.304657,512.354492 318.165039,518.690735 339.167297,522.816406 
	C349.879669,525.005249 360.225952,527.753052 370.744202,528.847229 
	C393.348694,531.198608 416.021271,533.042114 438.707520,534.398438 
	C449.751007,535.058777 460.887878,534.157715 472.447327,534.035522 
	C479.599854,533.775330 486.287506,533.443176 493.417969,533.159668 
	C496.747406,532.845093 499.634003,532.481873 502.928833,532.224487 
	C505.888824,532.093262 508.440582,531.856262 511.406738,531.699585 
	C521.839355,530.497742 531.973206,529.790588 541.849792,527.804260 
	C558.378418,524.480164 574.742981,520.339844 591.562988,516.463135 
	C598.010986,514.162964 604.203125,512.240417 610.104858,509.655029 
	C619.854065,505.384186 629.189087,500.327362 636.409302,492.199677 
	C642.796753,485.009399 644.432800,476.951813 640.045105,469.879852 
	C637.353882,465.542175 633.357605,462.014221 630.002625,457.800140 
	C630.680908,456.987854 631.303833,456.498047 632.162903,456.261871 
	C634.131104,457.409637 635.856140,458.317871 637.596863,459.194824 
	C640.745056,460.780853 643.902649,462.348206 647.056335,463.923370 
	C647.056335,463.923370 647.001404,464.000610 646.852661,464.327820 
	C647.163818,464.757874 647.623840,464.860718 648.083801,464.963562 
	C648.083801,464.963562 648.006287,464.994263 647.836426,465.285583 
	C648.609070,466.729980 649.520386,467.910217 650.498840,469.031952 
	C659.921387,479.833923 659.732117,491.821472 649.617615,501.977844 
	C646.355347,505.253662 642.372070,507.805023 638.782166,510.764862 
	C637.709106,511.649597 636.851257,512.795471 635.894775,513.821655 
z"/>
<path fill="#F27229" opacity="1.000000" stroke="none" 
	d="
M272.231018,355.483246 
	C272.231018,355.483246 272.493469,355.606750 272.631958,355.998566 
	C273.759247,357.287292 274.748016,358.184235 275.832886,359.431549 
	C278.948242,364.596191 281.321106,369.602051 280.828400,376.035461 
	C273.488831,376.035461 266.367493,376.140381 259.256989,375.910034 
	C258.308990,375.879333 257.083771,374.306183 256.552399,373.180389 
	C253.479584,366.670502 248.259460,363.907837 241.579773,366.364105 
	C239.358490,367.180939 236.787399,369.895081 236.415146,372.087952 
	C236.045090,374.267822 237.612518,377.698608 239.456314,379.112305 
	C242.105225,381.143219 245.791733,381.800934 249.004181,383.120605 
	C256.963013,386.390289 265.287903,389.008789 272.771149,393.145416 
	C287.525024,401.301208 285.366241,424.192352 277.342499,432.697601 
	C260.733185,450.303589 225.113495,446.876312 210.927353,425.698395 
	C210.629471,425.094421 210.377502,424.788513 210.180481,424.350189 
	C210.235458,424.217804 210.054291,423.995636 210.057755,423.569458 
	C209.611008,420.266815 209.160812,417.390320 208.606293,413.847321 
	C215.931824,413.847321 222.543106,413.952393 229.148087,413.794312 
	C231.702469,413.733185 233.064621,414.505219 233.802277,417.037811 
	C235.652435,423.389893 240.362350,425.848755 246.647110,425.932861 
	C253.082199,426.018921 256.936920,423.646454 257.822083,419.029938 
	C258.741028,414.237335 256.039062,409.823425 250.303391,407.571014 
	C245.832611,405.815338 241.160110,404.579132 236.601990,403.038849 
	C227.232544,399.872559 218.087570,396.349274 212.834351,386.777344 
	C212.671890,386.199097 212.439911,385.971100 212.106339,385.891235 
	C212.105743,385.936615 212.185684,385.893616 212.146301,385.480347 
	C209.500656,375.201324 210.698059,366.096802 217.413879,358.045441 
	C217.834915,357.540680 217.782837,356.641266 217.950867,355.925476 
	C217.950867,355.925476 217.996170,355.995667 218.277069,356.163910 
	C219.762436,355.286194 220.966904,354.240234 222.171387,353.194305 
	C223.206070,352.475189 224.240738,351.756042 226.010101,351.065338 
	C233.427979,350.010254 240.136765,347.939331 246.787445,348.111572 
	C253.913162,348.296112 260.984192,350.592285 268.079071,351.966858 
	C268.079071,351.966858 268.011230,351.986023 267.942139,352.312927 
	C269.325714,353.587616 270.778381,354.535431 272.231018,355.483246 
z"/>
<path fill="#F27229" opacity="1.000000" stroke="none" 
	d="
M387.111267,414.714905 
	C387.091187,414.268524 387.071106,413.822144 387.431824,412.946716 
	C389.427307,410.448364 390.851044,408.188660 392.690979,406.344055 
	C399.266937,399.751617 407.783020,398.431305 416.544891,398.044922 
	C420.265717,397.880829 423.999817,398.017548 427.620117,398.017548 
	C428.406830,389.412598 427.026031,386.045532 422.788452,385.084442 
	C417.767731,383.945679 414.967896,385.904968 412.083435,393.004333 
	C405.213257,393.004333 398.094330,393.004333 390.746826,392.848145 
	C390.181824,392.549438 389.845398,392.406891 389.595520,391.838257 
	C389.728424,390.257202 389.774841,389.102234 390.029175,387.665100 
	C392.681274,378.114655 399.657562,373.715576 408.325897,370.825989 
	C408.935913,370.612518 409.252625,370.392334 409.810089,370.244354 
	C410.365356,370.214325 410.679871,370.112091 411.303528,370.183289 
	C416.426544,370.180145 421.261719,369.625763 426.050476,369.895477 
	C442.765503,370.837036 452.915161,377.599670 452.243042,396.528809 
	C451.817719,408.507507 452.203125,420.516418 452.299835,432.511169 
	C452.324585,435.576050 452.634033,438.638611 452.836792,442.115997 
	C447.161774,442.115997 442.178711,441.929993 437.216705,442.173035 
	C433.008881,442.379150 429.950073,441.704041 430.168549,436.427246 
	C429.746643,437.280182 429.324738,438.133087 428.902863,438.986023 
	C428.505920,439.263275 428.108948,439.540558 427.186462,439.732971 
	C420.244537,442.594238 413.587646,443.971283 406.469025,443.354553 
	C397.401703,442.568939 390.145935,437.329254 387.967926,428.513031 
	C386.880585,424.111755 387.347412,419.326477 387.111267,414.714905 
M420.731293,411.009338 
	C419.748932,411.133606 418.741913,411.159424 417.788391,411.398682 
	C412.864868,412.634064 410.560394,416.197205 411.513550,421.005981 
	C412.335785,425.154114 416.288971,427.386200 421.124725,426.432739 
	C426.909302,425.292145 429.782898,418.490631 427.418579,410.994354 
	C425.548737,410.994354 423.576782,410.994354 420.731293,411.009338 
z"/>
<path fill="#FDF1E3" opacity="1.000000" stroke="none" 
	d="
M309.168396,451.283813 
	C309.168396,446.131775 309.168396,440.979736 309.168396,436.370758 
	C302.498779,433.462860 296.191803,430.906921 290.100922,427.911469 
	C288.703308,427.224121 288.049042,425.025238 287.052704,423.521973 
	C288.804840,423.243896 290.600922,422.572113 292.300781,422.761963 
	C297.277740,423.317902 302.210754,424.256104 307.172180,424.966431 
	C309.943176,425.363159 310.907990,424.069336 311.032593,421.267273 
	C311.558289,409.444244 312.302948,397.630920 312.973694,385.814392 
	C313.299744,380.071167 313.510254,374.315948 314.073059,368.595673 
	C314.197449,367.331818 315.590393,366.192780 316.399170,364.996246 
	C317.485107,366.029083 319.317200,366.931549 319.524445,368.117889 
	C320.310577,372.618011 320.758667,377.200562 320.987946,381.769623 
	C321.451385,391.004395 321.525177,400.260559 322.090698,409.487610 
	C322.365204,413.966003 323.386292,418.398651 324.100220,423.053009 
	C326.392548,422.643494 328.264862,422.309021 330.567505,422.235687 
	C331.010010,422.704834 331.022156,422.912781 330.750153,423.348877 
	C328.449280,424.267120 326.432617,424.957275 324.507111,425.616211 
	C323.447968,435.015045 324.265839,435.899719 333.255951,434.306824 
	C337.494415,433.555817 341.726410,432.549469 345.815765,431.213318 
	C364.450714,425.124542 375.636078,409.746857 375.434174,390.280212 
	C375.230560,370.647583 364.943970,356.654785 349.130127,346.601471 
	C341.651733,341.847290 333.073822,338.822632 325.007751,334.718414 
	C325.027924,334.225098 325.034454,334.027710 325.040985,333.830322 
	C332.510071,336.866669 340.255188,339.378693 347.354950,343.116547 
	C352.415527,345.780823 356.712524,349.969025 361.165375,353.697998 
	C369.034760,360.288025 373.219910,369.173889 376.270782,378.719360 
	C382.677795,398.765320 371.913727,421.514832 353.163422,430.276794 
	C344.249908,434.442078 335.271454,436.374786 324.887604,437.342438 
	C325.122131,441.447083 325.362427,445.797516 325.621094,450.146851 
	C326.079895,457.860809 326.702881,465.571136 326.850372,473.290771 
	C326.872498,474.448303 324.860809,475.954681 323.471619,476.727295 
	C322.433105,477.304871 320.882751,476.998749 319.559235,477.021576 
	C305.849945,477.258026 305.657532,477.800720 307.900543,461.224701 
	C308.033661,460.240723 308.103668,459.248199 308.639587,458.552917 
	C309.076172,463.955109 309.076172,469.064056 309.076172,474.372192 
	C314.519989,474.372192 319.414490,474.372192 324.853760,474.372192 
	C322.320190,439.158447 319.815033,404.339569 317.309906,369.520691 
	C314.490295,395.002411 312.691956,420.414001 310.785736,445.817505 
	C310.646759,447.669647 309.725830,449.463104 309.168396,451.283813 
M309.180054,431.507263 
	C309.278961,430.131989 309.377869,428.756714 309.475830,427.394745 
	C303.840271,426.929108 298.782349,426.511200 293.724457,426.093323 
	C298.172943,430.005951 302.972565,432.617950 309.180054,431.507263 
z"/>
<path fill="#EE7833" opacity="1.000000" stroke="none" 
	d="
M309.077271,451.679443 
	C309.725830,449.463104 310.646759,447.669647 310.785736,445.817505 
	C312.691956,420.414001 314.490295,395.002411 317.309906,369.520691 
	C319.815033,404.339569 322.320190,439.158447 324.853760,474.372192 
	C319.414490,474.372192 314.519989,474.372192 309.076172,474.372192 
	C309.076172,469.064056 309.076172,463.955109 309.015991,458.375610 
	C308.965942,455.961731 308.976044,454.018372 309.077271,451.679443 
z"/>
<path fill="#559BD0" opacity="1.000000" stroke="none" 
	d="
M414.179779,465.825653 
	C414.117096,463.537567 414.054413,461.249481 414.240295,458.173645 
	C426.894012,457.385925 439.299194,457.385925 451.920776,457.385925 
	C451.920776,460.205231 451.920776,462.876099 451.920776,466.064331 
	C447.565643,466.064331 443.650116,466.064331 439.452820,466.064331 
	C439.348114,468.194794 439.205139,469.817749 439.199249,471.441223 
	C439.169647,479.589935 438.903320,487.751282 439.275909,495.882721 
	C439.486053,500.468658 437.822205,501.891510 433.579346,501.285248 
	C431.988892,501.058014 430.361664,501.087677 428.148132,500.967438 
	C428.148132,489.214661 428.148132,477.837769 428.148132,465.825653 
	C423.082031,465.825653 418.630920,465.825653 414.179779,465.825653 
z"/>
<path fill="#FCEDDC" opacity="1.000000" stroke="none" 
	d="
M511.002777,369.144257 
	C522.237244,372.432404 529.522095,379.596100 532.582275,390.986816 
	C534.413025,397.801697 532.734009,400.033234 525.586060,400.034882 
	C520.925293,400.035950 516.241394,399.746155 511.610382,400.117432 
	C507.104858,400.478638 504.994751,398.433563 503.931854,394.413605 
	C503.199707,391.644562 502.426025,388.659119 498.525696,389.031403 
	C494.843689,389.382874 493.903168,391.759491 492.813843,395.122253 
	C490.125275,403.421570 490.728394,411.506653 493.235870,419.459717 
	C493.935944,421.680176 496.754486,423.819397 499.082672,424.656128 
	C500.037750,424.999390 503.451538,421.959930 503.697540,420.176514 
	C504.471527,414.566284 507.387421,413.458832 512.415466,413.886322 
	C517.538025,414.321869 522.727661,413.922882 527.886536,413.991882 
	C531.855347,414.044952 533.842163,416.283539 532.986755,419.916901 
	C529.882385,433.102509 519.560120,444.480957 503.919403,445.253998 
	C495.196716,445.685059 486.746368,445.885590 478.955841,441.933685 
	C468.149414,436.451904 463.034027,426.718475 462.086273,415.070068 
	C461.211975,404.323883 461.404144,393.504395 467.059998,383.684845 
	C467.381561,383.126556 467.862854,382.660309 468.655945,382.376007 
	C469.080719,382.822510 469.119354,383.044250 469.177673,383.635132 
	C463.357361,395.641968 462.093018,407.915985 465.397705,420.350098 
	C466.715271,425.307617 469.206940,430.468872 472.590240,434.267029 
	C483.734680,446.778046 510.897797,446.998352 522.728638,435.061920 
	C527.742676,430.003204 530.427368,423.783356 530.818359,416.360565 
	C522.632996,416.360565 515.036987,416.360565 507.409424,416.360565 
	C506.749908,418.493439 506.683167,420.886780 505.456116,422.174164 
	C503.555054,424.168610 500.855011,426.635895 498.507385,426.621826 
	C496.176056,426.607849 492.546234,424.252747 491.764160,422.097595 
	C488.093567,411.982330 487.848267,401.464691 491.798218,391.383362 
	C492.673920,389.148254 496.592590,386.762299 499.016815,386.856171 
	C501.421997,386.949310 503.947266,389.858551 505.947357,391.978516 
	C506.935028,393.025330 506.858215,395.076416 507.319611,396.896240 
	C515.119446,396.896240 522.828125,396.896240 531.072083,396.896240 
	C530.741089,394.531952 530.626282,392.576630 530.178345,390.700897 
	C527.701050,380.328613 520.604980,374.349609 511.018250,370.516846 
	C511.012939,369.876282 511.007874,369.510284 511.002777,369.144257 
z"/>
<path fill="#FDF1E3" opacity="1.000000" stroke="none" 
	d="
M210.054291,423.995636 
	C210.054291,423.995636 210.235458,424.217804 210.222366,424.653992 
	C210.463928,425.392242 210.718582,425.694336 210.973251,425.996429 
	C225.113495,446.876312 260.733185,450.303589 277.342499,432.697601 
	C285.366241,424.192352 287.525024,401.301208 272.771149,393.145416 
	C265.287903,389.008789 256.963013,386.390289 249.004181,383.120605 
	C245.791733,381.800934 242.105225,381.143219 239.456314,379.112305 
	C237.612518,377.698608 236.045090,374.267822 236.415146,372.087952 
	C236.787399,369.895081 239.358490,367.180939 241.579773,366.364105 
	C248.259460,363.907837 253.479584,366.670502 256.552399,373.180389 
	C257.083771,374.306183 258.308990,375.879333 259.256989,375.910034 
	C266.367493,376.140381 273.488831,376.035461 280.828400,376.035461 
	C281.321106,369.602051 278.948242,364.596191 276.181763,359.395325 
	C276.667053,358.985565 276.899567,358.962372 277.132050,358.939178 
	C282.542725,363.114288 282.826355,369.496155 283.792725,375.417328 
	C283.947418,376.365204 281.110107,378.761200 279.552429,378.860321 
	C273.245300,379.261719 266.834534,379.538666 260.597137,378.767944 
	C258.207214,378.472626 255.387222,375.659027 254.151413,373.273773 
	C251.594833,368.339233 246.623596,366.017975 241.782516,368.912537 
	C240.446960,369.711090 239.065033,371.982513 239.249481,373.373230 
	C239.471069,375.043915 241.021408,377.242371 242.560226,377.907074 
	C247.943665,380.232483 253.566498,382.005371 259.104584,383.970673 
	C268.378448,387.261810 277.895874,390.813782 282.492340,400.167297 
	C290.758423,416.988251 285.270813,437.105072 264.482239,443.168182 
	C252.155167,446.763458 239.809387,447.592346 227.753510,442.909027 
	C219.189651,439.582245 211.869156,434.296295 209.314484,424.379150 
	C209.619583,424.004242 210.054291,423.995636 210.054291,423.995636 
z"/>
<path fill="#E8F6FB" opacity="1.000000" stroke="none" 
	d="
M484.780426,453.977600 
	C493.544006,454.071045 495.215546,455.707703 495.066193,463.001831 
	C494.993134,466.571625 493.465424,468.152283 489.934479,468.037659 
	C487.272705,467.951233 484.605865,468.022156 481.941284,468.022583 
	C479.468323,468.022980 476.995331,468.022705 474.274841,468.022705 
	C474.274841,469.698334 474.274841,471.096313 474.274841,472.603241 
	C474.693604,472.718170 475.152863,472.950378 475.613922,472.954071 
	C479.610718,472.986389 483.636078,473.276825 487.597412,472.902679 
	C492.190308,472.468872 493.608948,474.373901 493.048462,478.619598 
	C492.854004,480.092804 493.489197,481.849701 492.888580,483.047302 
	C492.258087,484.304504 490.577972,485.895966 489.395081,485.865082 
	C484.511993,485.737488 479.643524,485.050018 474.372498,484.529022 
	C474.372498,486.628479 474.372498,488.127899 474.372498,489.977386 
	C479.581085,489.977386 484.717224,490.088043 489.846252,489.945007 
	C494.594208,489.812622 495.210297,492.640686 495.052094,496.411469 
	C494.900421,500.025543 495.790405,504.093414 490.027222,504.041687 
	C481.700623,503.967010 473.372650,504.056274 465.045654,504.008148 
	C461.026337,503.984894 458.841949,502.352203 458.912292,497.830231 
	C459.103912,485.508850 458.974884,473.182495 458.978577,460.858124 
	C458.980255,455.197784 459.908417,454.150208 465.822113,454.010406 
	C471.980865,453.864777 478.145752,453.977692 484.780426,453.977600 
M478.601135,465.969635 
	C483.028259,465.969635 487.455383,465.969635 491.829773,465.969635 
	C491.829773,462.555359 491.829773,459.975708 491.829773,457.204895 
	C481.570557,457.204895 471.664398,457.204895 461.453613,457.204895 
	C461.453613,471.883240 461.453613,486.268585 461.453613,500.945496 
	C471.997162,500.945496 482.214508,500.945496 492.565125,500.945496 
	C492.565125,497.917786 492.565125,495.232208 492.565125,491.979919 
	C485.577881,491.979919 479.001617,491.979919 472.416077,491.979919 
	C472.416077,488.849426 472.416077,486.305054 472.416077,483.442871 
	C477.463013,483.442871 482.121704,483.253540 486.756683,483.503876 
	C490.341888,483.697540 491.329285,482.274841 491.297974,478.863190 
	C491.268250,475.624390 490.226501,474.397736 486.954010,474.534760 
	C482.168274,474.735168 477.367920,474.586304 472.380432,474.586304 
	C472.380432,471.506744 472.380432,468.965973 472.380432,465.962799 
	C474.378418,465.962799 476.009949,465.962799 478.601135,465.969635 
z"/>
<path fill="#E8F6FB" opacity="1.000000" stroke="none" 
	d="
M567.185425,486.025146 
	C566.145386,486.964661 565.159302,487.874023 565.094604,488.844757 
	C564.885010,491.991547 564.857361,495.170380 565.049500,498.319183 
	C565.315857,502.685516 563.285339,504.362671 559.123169,504.038666 
	C557.800415,503.935730 556.459717,503.963593 555.132629,504.033661 
	C551.242676,504.239105 549.927490,502.234985 549.949890,498.574097 
	C550.030396,485.432983 550.110046,472.288910 549.891541,459.150909 
	C549.831726,455.552429 551.870972,454.345123 554.511475,454.107178 
	C557.027222,453.880524 559.748901,454.294464 562.148621,455.108765 
	C563.369202,455.522919 564.733643,457.358643 564.893372,458.688629 
	C565.287231,461.968353 565.180054,465.336823 564.977661,468.651489 
	C564.781860,471.858643 565.890259,473.290405 569.227722,473.018219 
	C571.662842,472.819580 574.127197,472.979370 576.978333,472.979370 
	C576.978333,468.332184 577.011414,464.048584 576.969971,459.765656 
	C576.918396,454.430969 580.744080,453.884735 584.533936,454.076172 
	C588.029724,454.252747 592.290710,453.712463 592.105530,459.720306 
	C591.798157,469.691925 592.015442,479.679688 592.012817,489.660675 
	C592.011597,494.333130 592.012512,499.005585 592.012512,504.022278 
	C588.120178,504.022278 585.452759,503.810974 582.831604,504.069214 
	C578.304932,504.515167 577.092957,501.888092 576.999207,498.178772 
	C576.902710,494.360718 576.977783,490.538361 576.977783,486.023071 
	C573.817932,486.023071 570.739624,486.023071 567.185425,486.025146 
M590.776123,462.674164 
	C590.694641,460.898956 590.613159,459.123779 590.527710,457.263123 
	C586.612183,457.263123 583.209961,457.263123 579.233704,457.263123 
	C579.233704,463.165375 579.233704,468.740875 579.233704,474.582031 
	C573.614380,474.582031 568.578003,474.582031 562.996704,474.582031 
	C562.996704,468.645081 562.996704,463.063995 562.996704,457.320923 
	C559.087341,457.320923 555.732544,457.320923 552.441956,457.320923 
	C552.441956,472.127716 552.441956,486.512665 552.441956,501.035583 
	C554.157959,501.127350 555.495117,501.085144 556.793945,501.288544 
	C561.754822,502.065460 563.814758,500.274017 563.159241,495.053833 
	C562.716370,491.526947 563.074768,487.899445 563.074768,484.356262 
	C569.019958,484.356262 574.090759,484.356262 579.664734,484.356262 
	C579.664734,488.839203 579.905884,492.987244 579.602966,497.095154 
	C579.234375,502.092529 582.590210,501.176025 585.486816,501.279907 
	C588.474487,501.387054 590.973633,501.561340 590.862610,497.090973 
	C590.585876,485.944000 590.767090,474.785675 590.776123,462.674164 
z"/>
<path fill="#FDF1E3" opacity="1.000000" stroke="none" 
	d="
M568.057434,413.132690 
	C566.210693,417.099274 566.523376,420.637482 570.499573,423.064331 
	C574.487793,425.498505 577.533264,424.387939 580.836304,420.748718 
	C582.445984,418.975189 585.111938,417.414459 587.439026,417.187714 
	C592.886719,416.656891 598.419495,416.920563 603.916016,416.993530 
	C608.523621,417.054688 609.742065,419.334259 608.080322,423.728821 
	C602.885925,437.465485 593.283875,444.592407 578.368164,445.140320 
	C570.248230,445.438660 562.334839,445.618164 554.889587,441.980194 
	C544.009583,436.664001 538.390747,427.177429 537.208923,415.773193 
	C536.123901,405.302704 535.942810,394.488831 541.935181,384.817078 
	C546.516357,377.422943 552.420166,371.897797 561.564087,370.183350 
	C561.961670,370.535248 561.971924,370.702789 561.681824,371.055450 
	C551.250916,375.042297 544.276367,381.829834 541.086609,392.352631 
	C537.621155,403.785156 537.879822,415.096893 542.704163,425.996765 
	C544.334778,429.680939 546.951782,433.277069 549.978760,435.932159 
	C560.920593,445.529877 582.988892,446.439697 595.015747,438.110443 
	C601.246704,433.795135 605.246765,427.911652 607.086304,419.683716 
	C599.345337,419.683716 592.080933,419.589783 584.825500,419.802704 
	C583.919800,419.829315 582.877075,421.361969 582.215210,422.399261 
	C579.944275,425.958893 576.647888,426.988525 572.728943,426.387878 
	C567.199707,425.540497 564.526306,421.206665 564.455566,412.879578 
	C564.805115,412.598358 564.933228,412.383789 565.363525,412.027039 
	C566.483582,411.964813 567.238403,412.007080 567.999634,412.320740 
	C568.023193,412.772339 568.040283,412.952515 568.057434,413.132690 
z"/>
<path fill="#FDF1E3" opacity="1.000000" stroke="none" 
	d="
M277.344635,456.927887 
	C277.581390,456.962982 277.795044,456.908020 278.429596,456.542145 
	C284.731293,452.976959 290.588928,449.632660 296.446564,446.288391 
	C296.356934,446.057068 296.267303,445.825745 296.177704,445.594421 
	C290.026581,448.455322 283.875458,451.316223 277.724335,454.177124 
	C276.627716,454.607574 275.531097,455.038025 273.932312,455.792480 
	C273.145203,456.369843 272.860260,456.623199 272.575317,456.876556 
	C266.578583,461.240234 260.581879,465.603912 254.236176,469.986694 
	C257.855255,466.000793 261.316071,461.248016 265.894226,458.142426 
	C276.260101,451.110718 287.858093,446.382629 299.812439,442.649109 
	C301.519958,442.115845 303.434692,442.246216 305.253540,442.069427 
	C305.531189,442.569000 305.808838,443.068573 306.086487,443.568146 
	C304.784637,444.725464 303.659851,446.245941 302.152130,446.981140 
	C292.345154,451.763458 281.975769,455.454498 274.001251,463.476410 
	C264.244385,473.291107 263.941193,483.045410 273.782593,492.477997 
	C283.640320,501.926239 295.401459,507.540009 307.921326,511.865173 
	C317.878021,515.304932 328.101685,517.971863 338.571594,521.439209 
	C338.917297,522.139587 338.898254,522.382629 338.879181,522.625671 
	C318.165039,518.690735 298.304657,512.354492 280.363281,501.014771 
	C276.485413,498.563812 272.796356,495.434814 269.884369,491.905273 
	C260.781219,480.871796 263.118774,473.482147 270.166687,463.613678 
	C271.590790,461.619690 273.667480,460.091766 276.036499,458.136536 
	C276.868011,457.592010 277.106323,457.259949 277.344635,456.927887 
z"/>
<path fill="#E8F6FB" opacity="1.000000" stroke="none" 
	d="
M505.665649,497.193634 
	C498.972717,488.008759 500.058319,478.021179 502.151764,468.304718 
	C503.710358,461.070740 512.704651,454.377686 518.963867,453.941803 
	C528.942322,453.246979 537.578796,455.086060 542.034119,465.349792 
	C542.848877,467.226624 543.237732,469.303131 543.669678,471.320343 
	C543.772156,471.798920 543.307007,472.859009 543.015442,472.892639 
	C539.072266,473.347382 535.115662,473.849976 531.157227,473.896820 
	C530.137268,473.908905 529.014404,472.468445 528.087524,471.545837 
	C526.294739,469.761414 524.256165,466.141693 522.954651,466.406342 
	C520.680420,466.868774 517.893494,469.338196 517.087402,471.596863 
	C515.100464,477.164124 514.767395,483.232056 518.150940,488.443115 
	C521.348572,493.367889 524.783264,492.896942 527.643311,487.857483 
	C528.619202,486.137848 529.725891,483.489960 531.141785,483.222961 
	C534.489868,482.591705 538.076843,482.973999 541.522583,483.352783 
	C542.130615,483.419617 542.847839,485.422791 542.961609,486.585907 
	C543.764160,494.786560 535.525269,502.487946 527.898010,504.079895 
	C519.261230,505.882629 512.122559,503.429047 505.665649,497.193634 
M507.318970,462.926453 
	C505.684265,467.063446 503.315521,471.069519 502.549805,475.361542 
	C500.050903,489.368103 508.058594,501.107605 520.806702,502.435486 
	C530.780640,503.474457 541.798035,496.906769 540.502625,485.973541 
	C535.787048,485.625793 531.397644,484.165680 528.393738,490.568176 
	C525.839478,496.012054 518.319519,494.915985 515.744873,489.111267 
	C512.856750,482.599945 512.858337,475.753906 515.595703,469.205383 
	C518.031250,463.378998 526.209900,462.184418 528.776794,467.600647 
	C531.828003,474.038727 536.320068,471.624420 542.253479,471.703674 
	C540.437622,467.825653 539.493164,464.468994 537.536377,461.876495 
	C531.216003,453.502838 514.493896,453.753418 507.318970,462.926453 
z"/>
<path fill="#E8F6FB" opacity="1.000000" stroke="none" 
	d="
M414.172241,466.255737 
	C418.630920,465.825653 423.082031,465.825653 428.148132,465.825653 
	C428.148132,477.837769 428.148132,489.214661 428.148132,500.967438 
	C430.361664,501.087677 431.988892,501.058014 433.579346,501.285248 
	C437.822205,501.891510 439.486053,500.468658 439.275909,495.882721 
	C438.903320,487.751282 439.169647,479.589935 439.199249,471.441223 
	C439.205139,469.817749 439.348114,468.194794 439.452820,466.064331 
	C443.650116,466.064331 447.565643,466.064331 451.920776,466.064331 
	C451.920776,462.876099 451.920776,460.205231 451.920776,457.385925 
	C439.299194,457.385925 426.894012,457.385925 414.252014,457.743500 
	C413.999664,457.242767 413.648468,455.872894 414.031250,455.621735 
	C415.198059,454.856140 416.655609,454.068085 417.986206,454.091003 
	C429.222076,454.284363 440.484344,454.275909 451.675842,455.140869 
	C457.010590,455.553162 454.868805,460.725342 454.777771,463.796692 
	C454.734833,465.244873 452.287018,467.431885 450.583954,467.838196 
	C447.754822,468.513153 444.647430,468.021973 441.019287,468.021973 
	C441.019287,477.545502 441.020355,486.970428 441.018982,496.395355 
	C441.017944,503.491730 440.442230,503.976807 433.309174,502.908020 
	C425.978821,501.809601 425.978760,501.809631 425.978668,494.172791 
	C425.978577,485.555847 425.978638,476.938904 425.978638,468.775482 
	C421.700653,468.018768 417.932678,467.352295 414.172241,466.255737 
z"/>
<path fill="#FDF1E3" opacity="1.000000" stroke="none" 
	d="
M629.947327,458.122620 
	C633.357605,462.014221 637.353882,465.542175 640.045105,469.879852 
	C644.432800,476.951813 642.796753,485.009399 636.409302,492.199677 
	C629.189087,500.327362 619.854065,505.384186 610.104858,509.655029 
	C604.203125,512.240417 598.010986,514.162964 591.422119,516.134827 
	C590.547852,515.572144 590.200745,515.257996 589.853638,514.943848 
	C600.620911,510.284393 611.750488,506.296661 622.038025,500.747833 
	C629.927002,496.492767 637.396240,491.144196 639.186584,480.752136 
	C640.460266,473.359131 637.610779,467.411316 632.721680,463.722321 
	C624.749878,457.707306 615.500854,453.379974 606.764893,448.385773 
	C604.357971,447.009766 600.782532,446.605194 602.662048,441.135803 
	C609.029968,443.491272 615.387085,445.842804 621.872803,448.867371 
	C621.982727,449.766479 621.964050,449.992554 621.588257,450.194580 
	C620.792908,449.990326 620.354553,449.810181 619.765015,449.475769 
	C619.366455,449.151031 619.092590,449.068939 618.463257,449.080719 
	C617.330261,449.133667 616.526306,449.181122 615.701965,449.229767 
	C620.529785,452.243622 625.238586,455.183136 629.947327,458.122620 
z"/>
<path fill="#FCEDDC" opacity="1.000000" stroke="none" 
	d="
M339.167297,522.816406 
	C338.898254,522.382629 338.917297,522.139587 338.966766,521.532104 
	C343.259735,521.881470 347.521332,522.600891 351.785004,523.307739 
	C361.169861,524.863525 370.510864,526.812500 379.951508,527.873413 
	C394.871857,529.550110 409.840424,530.931702 424.824158,531.869324 
	C437.506317,532.662964 450.238953,532.649902 463.845398,532.988892 
	C467.155212,533.310425 469.568848,533.636963 471.982483,533.963440 
	C460.887878,534.157715 449.751007,535.058777 438.707520,534.398438 
	C416.021271,533.042114 393.348694,531.198608 370.744202,528.847229 
	C360.225952,527.753052 349.879669,525.005249 339.167297,522.816406 
z"/>
<path fill="#FCEDDC" opacity="1.000000" stroke="none" 
	d="
M331.034332,423.120758 
	C331.022156,422.912781 331.010010,422.704834 330.976929,422.185059 
	C338.248230,418.111969 346.283295,415.670502 351.350403,408.317535 
	C356.679901,400.583771 358.564636,392.707153 355.196106,383.653381 
	C350.073151,369.884277 339.678436,361.520325 327.169312,354.968719 
	C317.365417,349.833923 307.430969,345.190735 296.545197,342.827148 
	C295.535675,342.607941 294.688812,341.639679 293.384796,340.660919 
	C292.999115,339.925323 292.995026,339.548035 293.373840,339.155457 
	C310.095734,343.933929 325.920685,349.878754 339.700684,360.216736 
	C348.400543,366.743469 355.589478,374.581665 357.934998,385.555542 
	C361.862152,403.929169 351.357544,417.717407 331.034332,423.120758 
z"/>
<path fill="#FCEDDC" opacity="1.000000" stroke="none" 
	d="
M210.057755,423.569458 
	C210.054291,423.995636 209.619583,424.004242 209.402191,424.003601 
	C208.639984,423.007721 207.998703,422.052521 207.566315,421.010620 
	C205.144196,415.174042 207.194778,411.966888 213.304413,411.965271 
	C219.123932,411.963745 224.944672,412.035034 230.762466,411.934845 
	C233.596481,411.886078 235.210403,412.818298 236.112015,415.741974 
	C238.665695,424.022644 245.481354,424.879730 252.210327,422.709351 
	C253.803528,422.195465 255.895599,419.483826 255.712128,418.043854 
	C255.401657,415.606873 254.033401,412.320404 252.092560,411.269043 
	C247.226486,408.633118 241.913177,406.602600 236.558502,405.134338 
	C225.151550,402.006500 215.316879,397.030823 210.309509,385.484314 
	C211.154190,385.457886 211.669937,385.675751 212.185684,385.893616 
	C212.185684,385.893616 212.105743,385.936615 212.154892,386.131927 
	C212.340683,386.639404 212.561264,386.871948 212.865784,387.024902 
	C218.087570,396.349274 227.232544,399.872559 236.601990,403.038849 
	C241.160110,404.579132 245.832611,405.815338 250.303391,407.571014 
	C256.039062,409.823425 258.741028,414.237335 257.822083,419.029938 
	C256.936920,423.646454 253.082199,426.018921 246.647110,425.932861 
	C240.362350,425.848755 235.652435,423.389893 233.802277,417.037811 
	C233.064621,414.505219 231.702469,413.733185 229.148087,413.794312 
	C222.543106,413.952393 215.931824,413.847321 208.606293,413.847321 
	C209.160812,417.390320 209.611008,420.266815 210.057755,423.569458 
z"/>
<path fill="#FCE4D0" opacity="1.000000" stroke="none" 
	d="
M428.973419,439.386414 
	C429.324738,438.133087 429.746643,437.280182 430.168549,436.427246 
	C429.950073,441.704041 433.008881,442.379150 437.216705,442.173035 
	C442.178711,441.929993 447.161774,442.115997 452.836792,442.115997 
	C452.634033,438.638611 452.324585,435.576050 452.299835,432.511169 
	C452.203125,420.516418 451.817719,408.507507 452.243042,396.528809 
	C452.915161,377.599670 442.765503,370.837036 426.050476,369.895477 
	C421.261719,369.625763 416.426544,370.180145 411.296783,369.978851 
	C410.980896,369.601013 410.981079,369.191895 410.981079,369.191895 
	C419.872589,369.452332 428.932190,368.736115 437.611389,370.230011 
	C447.582733,371.946350 453.651764,379.515198 453.973572,389.996185 
	C454.305573,400.808594 453.934601,411.640717 454.086639,422.461243 
	C454.167419,428.212097 454.628296,433.962311 455.065338,439.701599 
	C455.311951,442.939850 454.099152,444.190460 450.800354,444.081635 
	C445.145569,443.895050 439.479370,443.987213 433.819183,444.057861 
	C430.832642,444.095123 429.187134,442.830841 428.973419,439.386414 
z"/>
<path fill="#FCEDDC" opacity="1.000000" stroke="none" 
	d="
M340.967712,536.229004 
	C341.472626,536.260193 341.977570,536.291321 342.992188,536.576355 
	C343.501862,536.830261 343.871307,536.916077 343.871307,536.916077 
	C343.871307,536.916077 344.250305,536.900696 344.250305,536.900696 
	C358.412628,538.917236 372.518280,541.938721 386.749054,542.740601 
	C416.159393,544.397949 445.636322,544.873169 475.282166,546.169983 
	C472.660217,546.951111 469.841980,547.396790 467.023773,547.842468 
	C453.578400,547.906555 440.118561,548.384705 426.691803,547.915771 
	C413.810150,547.465881 400.935883,546.293030 388.107971,544.960388 
	C375.231689,543.622803 362.407715,541.760071 349.581116,539.981079 
	C346.427277,539.543640 343.352478,538.536438 340.276581,537.334900 
	C340.594543,536.726807 340.813171,536.510254 340.967712,536.229004 
z"/>
<path fill="#FCEDDC" opacity="1.000000" stroke="none" 
	d="
M515.584229,544.821655 
	C516.558167,544.176453 517.892883,543.257996 519.344238,543.002625 
	C541.726440,539.066040 564.378479,536.278076 586.432434,530.990051 
	C602.437744,527.152466 617.655884,520.031860 633.554443,514.285339 
	C632.798828,515.398987 631.946045,517.132690 630.593262,517.725342 
	C613.474792,525.225525 596.077942,531.849915 577.528381,535.080261 
	C566.007874,537.086609 554.631470,539.924072 543.107361,541.905334 
	C536.222473,543.088989 529.175110,543.320862 522.204895,544.020874 
	C520.129272,544.229309 518.067444,544.574341 515.584229,544.821655 
z"/>
<path fill="#FDF1E3" opacity="1.000000" stroke="none" 
	d="
M390.975433,393.004333 
	C398.094330,393.004333 405.213257,393.004333 412.083435,393.004333 
	C414.967896,385.904968 417.767731,383.945679 422.788452,385.084442 
	C427.026031,386.045532 428.406830,389.412598 427.620117,398.017548 
	C423.999817,398.017548 420.265717,397.880829 416.544891,398.044922 
	C407.783020,398.431305 399.266937,399.751617 392.690979,406.344055 
	C390.851044,408.188660 389.427307,410.448364 387.531250,412.624756 
	C389.824005,402.209259 398.145264,398.792755 407.380676,397.097290 
	C413.300232,396.010590 419.415497,395.989990 426.418732,395.410767 
	C425.725525,393.019562 425.604645,390.033691 424.073212,388.278961 
	C423.147705,387.218567 420.022278,387.946075 417.908875,388.134583 
	C417.269470,388.191650 416.243652,389.086792 416.184662,389.677002 
	C415.626892,395.256866 411.647980,395.102142 407.608887,395.041565 
	C403.453430,394.979218 399.296295,395.029236 395.139893,395.027466 
	C387.560669,395.024200 387.197510,394.610626 388.692474,387.259521 
	C389.296478,387.601685 389.525787,387.810791 389.821289,387.947296 
	C389.774841,389.102234 389.728424,390.257202 389.596985,392.025665 
	C389.999786,392.760925 390.487610,392.882629 390.975433,393.004333 
z"/>
<path fill="#FCEDDC" opacity="1.000000" stroke="none" 
	d="
M589.460938,514.962280 
	C590.200745,515.257996 590.547852,515.572144 591.035767,516.214722 
	C574.742981,520.339844 558.378418,524.480164 541.849792,527.804260 
	C531.973206,529.790588 521.839355,530.497742 511.406036,531.453247 
	C510.998749,530.797852 511.002960,530.469055 511.003479,530.140198 
	C516.138306,529.415344 521.287292,528.777405 526.405090,527.947693 
	C537.234741,526.191772 548.077393,524.492004 558.858826,522.471130 
	C567.387878,520.872498 575.844543,518.877441 584.306580,516.941467 
	C585.956970,516.563843 587.484253,515.648193 589.460938,514.962280 
z"/>
<path fill="#FCE4D0" opacity="1.000000" stroke="none" 
	d="
M386.677002,414.848755 
	C387.347412,419.326477 386.880585,424.111755 387.967926,428.513031 
	C390.145935,437.329254 397.401703,442.568939 406.469025,443.354553 
	C413.587646,443.971283 420.244537,442.594238 426.942566,439.788086 
	C424.862885,441.429626 422.683044,443.659912 420.107574,444.301147 
	C411.041779,446.558502 402.080383,446.608673 393.866058,441.046661 
	C386.239777,435.882812 382.244019,422.408417 386.677002,414.848755 
z"/>
<path fill="#FCE4D0" opacity="1.000000" stroke="none" 
	d="
M561.982117,370.870300 
	C561.971924,370.702789 561.961670,370.535248 561.956238,370.115967 
	C567.235535,369.580811 572.507263,369.203094 577.785583,369.051117 
	C580.728699,368.966400 583.736023,368.942627 586.622559,369.432556 
	C599.800476,371.669128 610.398865,387.303162 608.838379,399.575867 
	C608.492737,400.048126 608.324219,400.046021 608.012329,399.673035 
	C607.600098,397.831207 607.361389,396.354095 607.058044,394.890320 
	C603.922058,379.755554 593.813721,370.762421 578.331970,369.960999 
	C572.912170,369.680450 567.433777,370.534424 561.982117,370.870300 
z"/>
<path fill="#FCEDDC" opacity="1.000000" stroke="none" 
	d="
M636.268799,513.800659 
	C636.851257,512.795471 637.709106,511.649597 638.782166,510.764862 
	C642.372070,507.805023 646.355347,505.253662 649.617615,501.977844 
	C659.732117,491.821472 659.921387,479.833923 650.498840,469.031952 
	C649.520386,467.910217 648.609070,466.729980 647.859985,465.251160 
	C650.922180,468.038727 654.549805,470.735992 656.525391,474.339081 
	C664.085510,488.127289 655.854736,500.541260 645.973145,507.992950 
	C643.063232,510.187317 639.763733,511.865112 636.268799,513.800659 
z"/>
<path fill="#FCEDDC" opacity="1.000000" stroke="none" 
	d="
M262.030212,508.367004 
	C264.483612,509.330353 267.132812,510.476074 269.590759,511.942413 
	C282.929474,519.899902 297.400177,525.024719 312.614258,529.663696 
	C312.957947,530.486816 312.950897,530.839111 312.943848,531.191345 
	C296.161224,526.956787 280.236420,520.606140 265.344543,511.756958 
	C264.106689,511.021362 263.198883,509.730316 262.030212,508.367004 
z"/>
<path fill="#FCEDDC" opacity="1.000000" stroke="none" 
	d="
M268.046692,351.581116 
	C260.984192,350.592285 253.913162,348.296112 246.787445,348.111572 
	C240.136765,347.939331 233.427979,350.010254 226.334824,351.053833 
	C229.415054,349.405273 232.804977,346.728790 236.414352,346.389893 
	C246.885788,345.406799 257.509094,344.868622 267.324219,350.060181 
	C267.660339,350.237976 267.788940,350.808136 268.046692,351.581116 
z"/>
<path fill="#FDF1E3" opacity="1.000000" stroke="none" 
	d="
M292.990967,339.170715 
	C292.995026,339.548035 292.999115,339.925323 293.004547,340.585632 
	C286.061981,339.128235 279.121674,337.373077 272.170746,335.661194 
	C270.925232,335.354431 269.629944,335.255890 268.367706,335.009796 
	C265.002533,334.353607 264.198486,333.229126 264.272217,329.008881 
	C265.885956,329.008881 267.509918,329.008881 269.566833,329.301575 
	C269.999817,329.594299 270.008636,330.019196 269.715149,330.172546 
	C268.743591,330.581604 268.065552,330.837372 266.700958,331.352081 
	C276.013214,334.121552 284.502106,336.646149 292.990967,339.170715 
z"/>
<path fill="#FDF1E3" opacity="1.000000" stroke="none" 
	d="
M254.926727,319.925262 
	C256.231476,319.399872 258.302551,318.103973 258.695770,318.495056 
	C259.826385,319.619507 260.815094,321.397400 260.898834,322.969666 
	C261.170380,328.070068 260.586121,333.240021 261.139099,338.294800 
	C261.700500,343.426270 260.999390,344.739441 255.889801,343.947754 
	C254.246475,343.693115 252.746094,342.515808 251.531494,341.240295 
	C252.214951,340.591919 252.547241,340.463867 252.872742,340.378540 
	C252.865952,340.421295 252.908569,340.491730 253.108246,340.853516 
	C254.341049,341.429718 255.374176,341.644196 256.781494,341.875580 
	C257.742584,341.206848 258.878662,340.480560 258.831421,339.841797 
	C258.358978,333.454010 257.691742,327.080627 257.040131,320.294098 
	C257.213043,320.316010 256.117249,320.177063 254.998291,320.009460 
	C254.975128,319.980804 254.926727,319.925262 254.926727,319.925262 
z"/>
<path fill="#FCEDDC" opacity="1.000000" stroke="none" 
	d="
M252.879547,340.335815 
	C252.547241,340.463867 252.214951,340.591919 251.376495,340.890778 
	C243.491394,339.727661 235.748993,340.176910 229.045364,335.685547 
	C225.229767,333.129120 224.590439,330.905243 228.286606,328.244202 
	C230.705658,326.502563 233.569412,325.378571 236.631104,324.336792 
	C237.040726,324.883942 237.053238,325.072174 236.789276,325.458862 
	C233.473770,327.339905 230.434708,329.022491 226.744186,331.065765 
	C232.617722,335.976654 238.178848,337.814331 244.500717,338.160431 
	C247.324890,338.315033 250.088470,339.576630 252.879547,340.335815 
z"/>
<path fill="#FCE4D0" opacity="1.000000" stroke="none" 
	d="
M510.538635,369.073853 
	C511.007874,369.510284 511.012939,369.876282 510.589172,370.550842 
	C498.053619,368.751984 486.330841,368.964447 476.052063,376.930359 
	C473.593781,378.835449 471.447662,381.143341 469.157959,383.265961 
	C469.119354,383.044250 469.080719,382.822510 469.003845,382.265472 
	C473.927673,373.762360 481.355530,369.573486 490.731903,369.071777 
	C497.162262,368.727722 503.625824,369.004272 510.538635,369.073853 
z"/>
<path fill="#FDF1E3" opacity="1.000000" stroke="none" 
	d="
M467.480713,547.928223 
	C469.841980,547.396790 472.660217,546.951111 475.750671,546.215820 
	C487.565948,545.328247 499.109039,544.730225 510.926514,544.480713 
	C496.779846,545.890808 482.358734,546.952393 467.480713,547.928223 
z"/>
<path fill="#E8F6FB" opacity="1.000000" stroke="none" 
	d="
M609.106262,413.094452 
	C606.822876,416.289948 603.903198,414.041992 601.234741,414.032166 
	C593.940491,414.005371 586.646118,414.031982 579.351746,414.016693 
	C577.365173,414.012543 575.378784,413.934814 573.202087,413.255066 
	C573.023071,412.446411 573.034180,412.273560 573.451904,412.034424 
	C575.230042,412.013031 576.601746,412.057983 578.169312,412.333801 
	C579.252747,412.415039 580.140198,412.265411 581.489807,412.043793 
	C589.632996,412.003174 597.314026,412.034546 605.233887,412.322968 
	C606.631836,412.704163 607.790894,412.828308 608.988892,412.988098 
	C609.027832,413.023743 609.106262,413.094452 609.106262,413.094452 
z"/>
<path fill="#FCE4D0" opacity="1.000000" stroke="none" 
	d="
M212.146301,385.480347 
	C211.669937,385.675751 211.154190,385.457886 210.382141,385.122223 
	C206.798126,375.156708 210.028580,361.927673 217.583450,355.947449 
	C217.782837,356.641266 217.834915,357.540680 217.413879,358.045441 
	C210.698059,366.096802 209.500656,375.201324 212.146301,385.480347 
z"/>
<path fill="#FDF1E3" opacity="1.000000" stroke="none" 
	d="
M249.869720,475.122986 
	C250.074326,476.805664 250.014542,478.479065 249.627197,480.072845 
	C247.840576,487.424500 249.924484,493.750946 254.521896,499.479401 
	C255.542770,500.751373 256.447784,502.116394 257.176270,503.753723 
	C247.756592,498.069519 244.403610,483.987274 249.869720,475.122986 
z"/>
<path fill="#FCEDDC" opacity="1.000000" stroke="none" 
	d="
M390.029175,387.665100 
	C389.525787,387.810791 389.296478,387.601685 389.042450,387.102325 
	C390.417023,383.624084 391.152283,379.643311 393.505066,377.257782 
	C397.955292,372.745422 403.440216,369.368896 410.577271,369.100433 
	C410.981079,369.191895 410.980896,369.601013 410.987610,369.805450 
	C410.679871,370.112091 410.365356,370.214325 409.516418,370.257141 
	C408.665527,370.404938 408.349091,370.612152 408.032593,370.819336 
	C399.657562,373.715576 392.681274,378.114655 390.029175,387.665100 
z"/>
<path fill="#FDF1E3" opacity="1.000000" stroke="none" 
	d="
M472.447327,534.035522 
	C469.568848,533.636963 467.155212,533.310425 464.305389,532.968384 
	C464.374359,532.629700 464.869202,532.042725 465.386169,532.022644 
	C475.282043,531.636719 485.180511,531.317627 495.319336,531.288513 
	C494.698517,532.098511 493.836823,532.604736 492.975159,533.110962 
	C486.287506,533.443176 479.599854,533.775330 472.447327,534.035522 
z"/>
<path fill="#FCE4D0" opacity="1.000000" stroke="none" 
	d="
M324.865295,333.482208 
	C325.034454,334.027710 325.027924,334.225098 324.600586,334.722504 
	C314.105225,333.193604 304.030579,331.364716 294.181091,329.371338 
	C294.951233,329.109283 295.496216,329.011627 296.041229,328.914001 
	C305.887817,328.303589 315.277924,330.792175 324.865295,333.482208 
z"/>
<path fill="#FCE4D0" opacity="1.000000" stroke="none" 
	d="
M313.136292,531.535889 
	C312.950897,530.839111 312.957947,530.486816 312.952423,529.871582 
	C322.035034,531.718140 331.130249,533.827698 340.596558,536.083130 
	C340.813171,536.510254 340.594543,536.726807 340.093811,536.962891 
	C332.283112,535.573730 324.690277,534.101135 317.097839,532.626465 
	C315.840576,532.382385 314.585022,532.129395 313.136292,531.535889 
z"/>
<path fill="#FCEDDC" opacity="1.000000" stroke="none" 
	d="
M646.952087,463.594543 
	C643.902649,462.348206 640.745056,460.780853 637.596863,459.194824 
	C635.856140,458.317871 634.131104,457.409637 632.174377,456.012329 
	C631.775940,455.225128 631.581970,454.955627 631.549438,454.499207 
	C631.852417,454.163300 631.973572,454.028961 632.094666,453.894623 
	C637.012390,457.018311 641.930115,460.142029 646.952087,463.594543 
z"/>
<path fill="#FDF1E3" opacity="1.000000" stroke="none" 
	d="
M237.065735,325.260437 
	C237.053238,325.072174 237.040726,324.883942 237.012268,324.413086 
	C239.263885,323.428894 241.500885,322.596771 243.806259,322.056366 
	C247.219498,321.256226 250.681229,320.663116 254.524536,319.953583 
	C254.926727,319.925262 254.975128,319.980804 254.968353,320.371979 
	C248.996307,322.262268 243.031021,323.761353 237.065735,325.260437 
z"/>
<path fill="#E8F6FB" opacity="1.000000" stroke="none" 
	d="
M608.155762,400.043945 
	C608.324219,400.046021 608.492737,400.048126 608.911987,400.013977 
	C609.394409,404.204132 609.626282,408.430542 609.482178,412.875732 
	C609.106262,413.094452 609.027832,413.023743 608.973083,412.706512 
	C608.640991,411.938538 608.363647,411.487823 608.050232,410.578369 
	C608.061340,406.761078 608.108521,403.402496 608.155762,400.043945 
z"/>
<path fill="#FDF1E3" opacity="1.000000" stroke="none" 
	d="
M510.555908,530.062622 
	C511.002960,530.469055 510.998749,530.797852 510.991608,531.372925 
	C508.440582,531.856262 505.888824,532.093262 502.500977,532.196045 
	C500.113037,531.753296 498.561157,531.444824 497.009277,531.136353 
	C501.375641,530.752563 505.742004,530.368774 510.555908,530.062622 
z"/>
<path fill="#FCEDDC" opacity="1.000000" stroke="none" 
	d="
M621.945374,450.218628 
	C621.964050,449.992554 621.982727,449.766479 622.031494,449.201538 
	C625.308228,450.320709 628.554871,451.778748 631.948120,453.565704 
	C631.973572,454.028961 631.852417,454.163300 631.216675,454.410583 
	C627.783203,453.088531 624.864319,451.653564 621.945374,450.218628 
z"/>
<path fill="#E8F6FB" opacity="1.000000" stroke="none" 
	d="
M295.849609,328.530029 
	C295.496216,329.011627 294.951233,329.109283 293.781067,329.443329 
	C290.405396,329.566040 287.654877,329.452332 284.940247,329.035950 
	C284.985748,328.530304 284.995331,328.327362 285.004913,328.124390 
	C288.555939,328.131622 292.106934,328.138855 295.849609,328.530029 
z"/>
<path fill="#E8F6FB" opacity="1.000000" stroke="none" 
	d="
M270.952576,328.874695 
	C273.024353,328.579498 275.096161,328.284302 277.612061,328.393555 
	C278.106934,329.015259 278.157715,329.232544 277.900818,329.555023 
	C276.730255,329.651733 275.867371,329.643219 274.898682,329.505859 
	C274.432465,329.237061 274.164001,329.344452 273.624664,329.792358 
	C272.516235,329.885071 271.770691,329.884613 271.015381,329.631195 
	C270.987946,329.210388 270.970245,329.042542 270.952576,328.874695 
z"/>
<path fill="#FCEDDC" opacity="1.000000" stroke="none" 
	d="
M496.752350,531.071533 
	C498.561157,531.444824 500.113037,531.753296 502.092743,532.090210 
	C499.634003,532.481873 496.747406,532.845093 493.417969,533.159668 
	C493.836823,532.604736 494.698517,532.098511 495.770844,531.364258 
	C496.152802,531.093018 496.324127,531.049866 496.752350,531.071533 
z"/>
<path fill="#FCE4D0" opacity="1.000000" stroke="none" 
	d="
M221.794800,353.094177 
	C220.966904,354.240234 219.762436,355.286194 218.243408,356.139221 
	C219.091980,354.962219 220.255096,353.978119 221.794800,353.094177 
z"/>
<path fill="#FDF1E3" opacity="1.000000" stroke="none" 
	d="
M258.033356,505.379059 
	C259.327271,505.815491 260.721252,506.574585 262.047546,507.709320 
	C260.697723,507.290527 259.415588,506.496124 258.033356,505.379059 
z"/>
<path fill="#FCEDDC" opacity="1.000000" stroke="none" 
	d="
M272.551819,355.151794 
	C270.778381,354.535431 269.325714,353.587616 267.947815,352.278107 
	C269.639252,352.884399 271.255920,353.852386 272.551819,355.151794 
z"/>
<path fill="#FCEDDC" opacity="1.000000" stroke="none" 
	d="
M277.073120,358.507629 
	C276.899567,358.962372 276.667053,358.985565 276.085632,359.044983 
	C274.748016,358.184235 273.759247,357.287292 272.626434,356.077026 
	C275.634247,353.317993 275.717743,356.885590 277.073120,358.507629 
z"/>
<path fill="#FCE4D0" opacity="1.000000" stroke="none" 
	d="
M573.045349,412.100708 
	C573.034180,412.273560 573.023071,412.446411 572.981384,412.877625 
	C571.588928,413.095428 570.227051,413.054871 568.461304,413.073517 
	C568.040283,412.952515 568.023193,412.772339 568.414124,412.226990 
	C570.229919,411.941467 571.637634,412.021088 573.045349,412.100708 
z"/>
<path fill="#E8F6FB" opacity="1.000000" stroke="none" 
	d="
M279.005707,328.131775 
	C280.394592,328.083496 281.783478,328.035187 283.597931,328.358978 
	C284.047638,328.932281 284.071747,329.133514 283.664642,329.384247 
	C281.786713,329.414429 280.339996,329.395111 278.933472,329.065857 
	C278.984314,328.547913 278.994995,328.339844 279.005707,328.131775 
z"/>
<path fill="#FCE4D0" opacity="1.000000" stroke="none" 
	d="
M284.095886,329.334717 
	C284.071747,329.133514 284.047638,328.932281 284.010010,328.427734 
	C284.164612,328.078888 284.332703,328.033356 284.752869,328.056122 
	C284.995331,328.327362 284.985748,328.530304 284.737854,329.103516 
	C284.499573,329.473724 284.095886,329.334717 284.095886,329.334717 
z"/>
<path fill="#FCE4D0" opacity="1.000000" stroke="none" 
	d="
M278.754150,328.064972 
	C278.994995,328.339844 278.984314,328.547913 278.769562,329.150146 
	C278.565521,329.544342 278.208496,329.449799 278.208496,329.449799 
	C278.157715,329.232544 278.106934,329.015259 278.027832,328.464966 
	C278.167145,328.087372 278.334839,328.042786 278.754150,328.064972 
z"/>
<path fill="#FDF1E3" opacity="1.000000" stroke="none" 
	d="
M256.996826,504.285339 
	C257.337524,504.139160 257.759216,504.249023 258.075195,504.721313 
	C257.672241,504.902985 257.375031,504.722229 256.996826,504.285339 
z"/>
<path fill="#FCE4D0" opacity="1.000000" stroke="none" 
	d="
M270.709961,328.940277 
	C270.970245,329.042542 270.987946,329.210388 270.770203,329.732666 
	C270.359436,330.064484 270.184052,330.041840 270.008636,330.019196 
	C270.008636,330.019196 269.999817,329.594299 269.996033,329.382080 
	C270.150635,329.115234 270.309021,329.060547 270.709961,328.940277 
z"/>
<path fill="#FCEDDC" opacity="1.000000" stroke="none" 
	d="
M648.022095,464.699127 
	C647.623840,464.860718 647.163818,464.757874 646.877686,464.288208 
	C647.354431,464.092499 647.657410,464.263611 648.022095,464.699127 
z"/>
<path fill="#EE7833" opacity="1.000000" stroke="none" 
	d="
M277.827820,454.755432 
	C283.875458,451.316223 290.026581,448.455322 296.177704,445.594421 
	C296.267303,445.825745 296.356934,446.057068 296.446564,446.288391 
	C290.588928,449.632660 284.731293,452.976959 278.524170,456.402283 
	C278.093567,456.100128 278.012451,455.716949 277.827820,454.755432 
z"/>
<path fill="#EE7833" opacity="1.000000" stroke="none" 
	d="
M621.588257,450.194580 
	C624.864319,451.653564 627.783203,453.088531 631.034912,454.612122 
	C631.581970,454.955627 631.775940,455.225128 631.938232,455.758728 
	C631.303833,456.498047 630.680908,456.987854 630.002625,457.800110 
	C625.238586,455.183136 620.529785,452.243622 615.701965,449.229767 
	C616.526306,449.181122 617.330261,449.133667 618.609009,449.253418 
	C619.083801,449.420624 619.467957,449.653168 619.467957,449.653168 
	C619.467957,449.653168 619.916260,449.630005 619.916260,449.630005 
	C620.354553,449.810181 620.792908,449.990326 621.588257,450.194580 
z"/>
<path fill="#FCE4D0" opacity="1.000000" stroke="none" 
	d="
M344.092529,536.777344 
	C344.250305,536.900696 343.871307,536.916077 343.871307,536.916077 
	C343.871307,536.916077 343.501862,536.830261 343.337891,536.740234 
	C343.428192,536.499939 343.681824,536.501221 344.092529,536.777344 
z"/>
<path fill="#EE7833" opacity="1.000000" stroke="none" 
	d="
M277.068237,457.032684 
	C277.106323,457.259949 276.868011,457.592010 276.315308,457.953125 
	C276.264557,457.700592 276.528198,457.419037 277.068237,457.032684 
z"/>
<path fill="#EE7833" opacity="1.000000" stroke="none" 
	d="
M272.864136,456.832520 
	C272.860260,456.623199 273.145203,456.369843 273.716919,456.073273 
	C273.720123,456.282867 273.436554,456.535675 272.864136,456.832520 
z"/>
<path fill="#FCEDDC" opacity="1.000000" stroke="none" 
	d="
M210.927353,425.698395 
	C210.718582,425.694336 210.463928,425.392242 210.167389,424.786377 
	C210.377502,424.788513 210.629471,425.094421 210.927353,425.698395 
z"/>
<path fill="#FCE4D0" opacity="1.000000" stroke="none" 
	d="
M212.834351,386.777344 
	C212.561264,386.871948 212.340683,386.639404 212.155487,386.086548 
	C212.439911,385.971100 212.671890,386.199097 212.834351,386.777344 
z"/>
<path fill="#FCEDDC" opacity="1.000000" stroke="none" 
	d="
M421.168060,411.001831 
	C423.576782,410.994354 425.548737,410.994354 427.418579,410.994354 
	C429.782898,418.490631 426.909302,425.292145 421.124725,426.432739 
	C416.288971,427.386200 412.335785,425.154114 411.513550,421.005981 
	C410.560394,416.197205 412.864868,412.634064 417.788391,411.398682 
	C418.741913,411.159424 419.748932,411.133606 421.168060,411.001831 
M421.502045,424.009857 
	C426.656921,421.910065 426.094147,417.632843 425.823486,413.391449 
	C417.975983,412.614960 413.975739,414.551697 414.101410,419.246521 
	C414.214294,423.462433 416.910034,425.020691 421.502045,424.009857 
z"/>
<path fill="#FCEDDC" opacity="1.000000" stroke="none" 
	d="
M390.746826,392.848175 
	C390.487610,392.882629 389.999786,392.760925 389.510498,392.451782 
	C389.845398,392.406891 390.181824,392.549438 390.746826,392.848175 
z"/>
<path fill="#FCE4D0" opacity="1.000000" stroke="none" 
	d="
M408.325928,370.826019 
	C408.349091,370.612152 408.665527,370.404938 409.275635,370.184937 
	C409.252625,370.392334 408.935913,370.612518 408.325928,370.826019 
z"/>
<path fill="#F0742D" opacity="1.000000" stroke="none" 
	d="
M269.715149,330.172546 
	C270.184052,330.041840 270.359436,330.064484 270.779968,329.985657 
	C271.770691,329.884613 272.516235,329.885071 273.884033,329.857208 
	C274.672394,329.764160 274.838440,329.699402 275.004456,329.634674 
	C275.867371,329.643219 276.730255,329.651733 277.900818,329.555023 
	C278.208496,329.449799 278.565521,329.544342 278.729431,329.460083 
	C280.339996,329.395111 281.786713,329.414429 283.664642,329.384247 
	C284.095886,329.334717 284.499573,329.473724 284.701965,329.406189 
	C287.654877,329.452332 290.405396,329.566040 293.555939,329.607788 
	C304.030579,331.364716 314.105225,333.193604 324.586975,335.018433 
	C333.073822,338.822632 341.651733,341.847290 349.130127,346.601471 
	C364.943970,356.654785 375.230560,370.647583 375.434174,390.280212 
	C375.636078,409.746857 364.450714,425.124542 345.815765,431.213318 
	C341.726410,432.549469 337.494415,433.555817 333.255951,434.306824 
	C324.265839,435.899719 323.447968,435.015045 324.507111,425.616211 
	C326.432617,424.957275 328.449280,424.267120 330.750153,423.348877 
	C351.357544,417.717407 361.862152,403.929169 357.934998,385.555542 
	C355.589478,374.581665 348.400543,366.743469 339.700684,360.216736 
	C325.920685,349.878754 310.095734,343.933929 293.373840,339.155457 
	C284.502106,336.646149 276.013214,334.121552 266.700958,331.352081 
	C268.065552,330.837372 268.743591,330.581604 269.715149,330.172546 
z"/>
<path fill="#EE7833" opacity="1.000000" stroke="none" 
	d="
M309.040680,431.867950 
	C302.972565,432.617950 298.172943,430.005951 293.724457,426.093323 
	C298.782349,426.511200 303.840271,426.929108 309.475830,427.394745 
	C309.377869,428.756714 309.278961,430.131989 309.040680,431.867950 
z"/>
<path fill="#F27229" opacity="1.000000" stroke="none" 
	d="
M469.177673,383.635132 
	C471.447662,381.143341 473.593781,378.835449 476.052063,376.930359 
	C486.330841,368.964447 498.053619,368.751984 510.589386,370.825409 
	C520.604980,374.349609 527.701050,380.328613 530.178345,390.700897 
	C530.626282,392.576630 530.741089,394.531952 531.072083,396.896240 
	C522.828125,396.896240 515.119446,396.896240 507.319611,396.896240 
	C506.858215,395.076416 506.935028,393.025330 505.947357,391.978516 
	C503.947266,389.858551 501.421997,386.949310 499.016815,386.856171 
	C496.592590,386.762299 492.673920,389.148254 491.798218,391.383362 
	C487.848267,401.464691 488.093567,411.982330 491.764160,422.097595 
	C492.546234,424.252747 496.176056,426.607849 498.507385,426.621826 
	C500.855011,426.635895 503.555054,424.168610 505.456116,422.174164 
	C506.683167,420.886780 506.749908,418.493439 507.409424,416.360565 
	C515.036987,416.360565 522.632996,416.360565 530.818359,416.360565 
	C530.427368,423.783356 527.742676,430.003204 522.728638,435.061920 
	C510.897797,446.998352 483.734680,446.778046 472.590240,434.267029 
	C469.206940,430.468872 466.715271,425.307617 465.397705,420.350098 
	C462.093018,407.915985 463.357361,395.641968 469.177673,383.635132 
z"/>
<path fill="#559BD0" opacity="1.000000" stroke="none" 
	d="
M478.121307,465.966217 
	C476.009949,465.962799 474.378418,465.962799 472.380432,465.962799 
	C472.380432,468.965973 472.380432,471.506744 472.380432,474.586304 
	C477.367920,474.586304 482.168274,474.735168 486.954010,474.534760 
	C490.226501,474.397736 491.268250,475.624390 491.297974,478.863190 
	C491.329285,482.274841 490.341888,483.697540 486.756683,483.503876 
	C482.121704,483.253540 477.463013,483.442871 472.416077,483.442871 
	C472.416077,486.305054 472.416077,488.849426 472.416077,491.979919 
	C479.001617,491.979919 485.577881,491.979919 492.565125,491.979919 
	C492.565125,495.232208 492.565125,497.917786 492.565125,500.945496 
	C482.214508,500.945496 471.997162,500.945496 461.453613,500.945496 
	C461.453613,486.268585 461.453613,471.883240 461.453613,457.204895 
	C471.664398,457.204895 481.570557,457.204895 491.829773,457.204895 
	C491.829773,459.975708 491.829773,462.555359 491.829773,465.969635 
	C487.455383,465.969635 483.028259,465.969635 478.121307,465.966217 
z"/>
<path fill="#559BD0" opacity="1.000000" stroke="none" 
	d="
M590.770264,463.153015 
	C590.767090,474.785675 590.585876,485.944000 590.862610,497.090973 
	C590.973633,501.561340 588.474487,501.387054 585.486816,501.279907 
	C582.590210,501.176025 579.234375,502.092529 579.602966,497.095154 
	C579.905884,492.987244 579.664734,488.839203 579.664734,484.356262 
	C574.090759,484.356262 569.019958,484.356262 563.074768,484.356262 
	C563.074768,487.899445 562.716370,491.526947 563.159241,495.053833 
	C563.814758,500.274017 561.754822,502.065460 556.793945,501.288544 
	C555.495117,501.085144 554.157959,501.127350 552.441956,501.035583 
	C552.441956,486.512665 552.441956,472.127716 552.441956,457.320923 
	C555.732544,457.320923 559.087341,457.320923 562.996704,457.320923 
	C562.996704,463.063995 562.996704,468.645081 562.996704,474.582031 
	C568.578003,474.582031 573.614380,474.582031 579.233704,474.582031 
	C579.233704,468.740875 579.233704,463.165375 579.233704,457.263123 
	C583.209961,457.263123 586.612183,457.263123 590.527710,457.263123 
	C590.613159,459.123779 590.694641,460.898956 590.770264,463.153015 
z"/>
<path fill="#F1732A" opacity="1.000000" stroke="none" 
	d="
M573.451904,412.034393 
	C571.637634,412.021088 570.229919,411.941467 568.407715,411.955566 
	C567.238403,412.007080 566.483582,411.964813 565.128906,412.033752 
	C564.224548,412.361847 564.147339,412.641510 564.297302,412.983887 
	C564.526306,421.206665 567.199707,425.540497 572.728943,426.387878 
	C576.647888,426.988525 579.944275,425.958893 582.215210,422.399261 
	C582.877075,421.361969 583.919800,419.829315 584.825500,419.802704 
	C592.080933,419.589783 599.345337,419.683716 607.086304,419.683716 
	C605.246765,427.911652 601.246704,433.795135 595.015747,438.110443 
	C582.988892,446.439697 560.920593,445.529877 549.978760,435.932159 
	C546.951782,433.277069 544.334778,429.680939 542.704163,425.996765 
	C537.879822,415.096893 537.621155,403.785156 541.086609,392.352631 
	C544.276367,381.829834 551.250916,375.042297 561.681824,371.055450 
	C567.433777,370.534424 572.912170,369.680450 578.331970,369.960999 
	C593.813721,370.762421 603.922058,379.755554 607.058044,394.890320 
	C607.361389,396.354095 607.600098,397.831207 608.012329,399.673035 
	C608.108521,403.402496 608.061340,406.761078 607.727051,410.656921 
	C606.625000,411.484802 605.809998,411.775391 604.995056,412.065948 
	C597.314026,412.034546 589.632996,412.003174 581.116028,411.930786 
	C579.511169,411.960846 578.742310,412.031891 577.973389,412.102905 
	C576.601746,412.057983 575.230042,412.013031 573.451904,412.034393 
M573.522705,398.008118 
	C576.625183,398.008118 579.727600,398.008118 582.787292,398.008118 
	C583.207703,389.802277 580.102844,385.883514 573.819763,386.009125 
	C567.732605,386.130829 564.335083,390.419769 564.759827,398.008728 
	C567.335388,398.008728 569.947754,398.008728 573.522705,398.008118 
z"/>
<path fill="#FCE4D0" opacity="1.000000" stroke="none" 
	d="
M564.455566,412.879578 
	C564.147339,412.641510 564.224548,412.361847 564.763611,412.138245 
	C564.933228,412.383789 564.805115,412.598358 564.455566,412.879578 
z"/>
<path fill="#559BD0" opacity="1.000000" stroke="none" 
	d="
M507.570068,462.656647 
	C514.493896,453.753418 531.216003,453.502838 537.536377,461.876495 
	C539.493164,464.468994 540.437622,467.825653 542.253479,471.703674 
	C536.320068,471.624420 531.828003,474.038727 528.776794,467.600647 
	C526.209900,462.184418 518.031250,463.378998 515.595703,469.205383 
	C512.858337,475.753906 512.856750,482.599945 515.744873,489.111267 
	C518.319519,494.915985 525.839478,496.012054 528.393738,490.568176 
	C531.397644,484.165680 535.787048,485.625793 540.502625,485.973541 
	C541.798035,496.906769 530.780640,503.474457 520.806702,502.435486 
	C508.058594,501.107605 500.050903,489.368103 502.549805,475.361542 
	C503.315521,471.069519 505.684265,467.063446 507.570068,462.656647 
z"/>
<path fill="#FCEDDC" opacity="1.000000" stroke="none" 
	d="
M619.765015,449.475769 
	C619.916260,449.630005 619.467957,449.653168 619.467957,449.653168 
	C619.467957,449.653168 619.083801,449.420624 618.937988,449.247925 
	C619.092590,449.068939 619.366455,449.151031 619.765015,449.475769 
z"/>
<path fill="#EE7833" opacity="1.000000" stroke="none" 
	d="
M236.789276,325.458862 
	C243.031021,323.761353 248.996307,322.262268 254.991531,320.400635 
	C256.117249,320.177063 257.213043,320.316010 257.040131,320.294098 
	C257.691742,327.080627 258.358978,333.454010 258.831421,339.841797 
	C258.878662,340.480560 257.742584,341.206848 256.487305,341.627930 
	C254.848816,341.072815 253.878693,340.782288 252.908569,340.491730 
	C252.908569,340.491730 252.865952,340.421295 252.872742,340.378540 
	C250.088470,339.576630 247.324890,338.315033 244.500717,338.160431 
	C238.178848,337.814331 232.617722,335.976654 226.744186,331.065765 
	C230.434708,329.022491 233.473770,327.339905 236.789276,325.458862 
M241.791565,328.770844 
	C239.080414,327.599182 237.045349,328.276337 236.989426,331.351135 
	C236.973663,332.218781 239.127640,333.854584 240.312393,333.878998 
	C243.886490,333.952576 242.921860,331.458679 241.791565,328.770844 
z"/>
<path fill="#FCEDDC" opacity="1.000000" stroke="none" 
	d="
M253.108246,340.853516 
	C253.878693,340.782288 254.848816,341.072815 256.113098,341.611023 
	C255.374176,341.644196 254.341049,341.429718 253.108246,340.853516 
z"/>
<path fill="#FCE4D0" opacity="1.000000" stroke="none" 
	d="
M605.233887,412.322998 
	C605.809998,411.775391 606.625000,411.484802 607.763123,411.115662 
	C608.363647,411.487823 608.640991,411.938538 608.934204,412.670837 
	C607.790894,412.828308 606.631836,412.704163 605.233887,412.322998 
z"/>
<path fill="#FCE4D0" opacity="1.000000" stroke="none" 
	d="
M578.169312,412.333801 
	C578.742310,412.031891 579.511169,411.960846 580.653870,412.002808 
	C580.140198,412.265411 579.252747,412.415039 578.169312,412.333801 
z"/>
<path fill="#FCE4D0" opacity="1.000000" stroke="none" 
	d="
M274.898682,329.505859 
	C274.838440,329.699402 274.672394,329.764160 274.246948,329.764038 
	C274.164001,329.344452 274.432465,329.237061 274.898682,329.505859 
z"/>
<path fill="#000000" opacity="1.000000" stroke="none" 
	d="
M421.216492,424.275146 
	C416.910034,425.020691 414.214294,423.462433 414.101410,419.246521 
	C413.975739,414.551697 417.975983,412.614960 425.823486,413.391449 
	C426.094147,417.632843 426.656921,421.910065 421.216492,424.275146 
z"/>
<path fill="#FCEDDC" opacity="1.000000" stroke="none" 
	d="
M573.041382,398.008423 
	C569.947754,398.008728 567.335388,398.008728 564.759827,398.008728 
	C564.335083,390.419769 567.732605,386.130829 573.819763,386.009125 
	C580.102844,385.883514 583.207703,389.802277 582.787292,398.008118 
	C579.727600,398.008118 576.625183,398.008118 573.041382,398.008423 
M579.613525,391.139404 
	C577.062988,390.277924 574.183044,388.260223 572.051025,388.867645 
	C569.742798,389.525208 568.132263,392.631409 566.217407,394.669647 
	C566.559631,395.023621 566.901855,395.377563 567.244080,395.731506 
	C571.762756,395.731506 576.281433,395.731506 581.217651,395.731506 
	C580.721313,394.218781 580.335999,393.044403 579.613525,391.139404 
z"/>
<path fill="#FCE4D0" opacity="1.000000" stroke="none" 
	d="
M242.047668,329.063751 
	C242.921860,331.458679 243.886490,333.952576 240.312393,333.878998 
	C239.127640,333.854584 236.973663,332.218781 236.989426,331.351135 
	C237.045349,328.276337 239.080414,327.599182 242.047668,329.063751 
z"/>
<path fill="#000000" opacity="1.000000" stroke="none" 
	d="
M579.782104,391.504700 
	C580.335999,393.044403 580.721313,394.218781 581.217651,395.731506 
	C576.281433,395.731506 571.762756,395.731506 567.244080,395.731506 
	C566.901855,395.377563 566.559631,395.023621 566.217407,394.669647 
	C568.132263,392.631409 569.742798,389.525208 572.051025,388.867645 
	C574.183044,388.260223 577.062988,390.277924 579.782104,391.504700 
z"/>
</svg>